<?xml version="1.0" encoding="UTF-8" standalone="no"?>
<svg
   width="256.00003"
   height="256"
   viewBox="0 0 256.00003 256"
   data-name="Instagram w/circle"
   version="1.1"
   id="svg4"
   sodipodi:docname="DGE.svg"
   inkscape:version="1.2.2 (b0a8486541, 2022-12-01)"
   inkscape:export-filename="Instagram.png"
   inkscape:export-xdpi="95.999992"
   inkscape:export-ydpi="95.999992"
   xmlns:inkscape="http://www.inkscape.org/namespaces/inkscape"
   xmlns:sodipodi="http://sodipodi.sourceforge.net/DTD/sodipodi-0.dtd"
   xmlns="http://www.w3.org/2000/svg"
   xmlns:svg="http://www.w3.org/2000/svg">
  <defs
     id="defs8" />
  <sodipodi:namedview
     id="namedview6"
     pagecolor="#ffffff"
     bordercolor="#666666"
     borderopacity="1.0"
     inkscape:pageshadow="2"
     inkscape:pageopacity="0"
     inkscape:pagecheckerboard="true"
     showgrid="false"
     inkscape:zoom="1.8089426"
     inkscape:cx="95.359576"
     inkscape:cy="114.15509"
     inkscape:window-width="1920"
     inkscape:window-height="934"
     inkscape:window-x="0"
     inkscape:window-y="44"
     inkscape:window-maximized="1"
     inkscape:current-layer="g115"
     width="16.2px"
     height="16px"
     scale-x="1"
     inkscape:showpageshadow="0"
     inkscape:deskcolor="#ffffff" />
  <g
     id="g115"
     transform="matrix(62.5,0,0,62.5,-154.51064,-193.68531)">
    <circle
       style="fill:#00c389;stroke-width:0.00648;stroke-dasharray:none;stroke:none;stroke-opacity:1;fill-opacity:1"
       id="path3868"
       cx="4.5201702"
       cy="5.146965"
       r="2.0480001" />
    <path
       d="m 11.346276,5.1376995 a 1.656,1.656 0 0 0 -0.95,-0.949 2.766,2.766 0 0 0 -0.9280002,-0.172 c -0.527,-0.024 -0.685,-0.03 -2.02,-0.03 -1.335,0 -1.493,0.006 -2.02,0.03 a 2.766,2.766 0 0 0 -0.929,0.172 1.656,1.656 0 0 0 -0.949,0.95 2.766,2.766 0 0 0 -0.172,0.928 c -0.024,0.527 -0.03,0.685 -0.03,2.02 0,1.335 0.006,1.493 0.03,2.0199995 a 2.766,2.766 0 0 0 0.172,0.929 1.656,1.656 0 0 0 0.95,0.949 2.766,2.766 0 0 0 0.928,0.172 c 0.527,0.024 0.685,0.029 2.02,0.029 1.335,0 1.493,-0.005 2.02,-0.03 a 2.766,2.766 0 0 0 0.9290002,-0.171 1.656,1.656 0 0 0 0.949,-0.95 2.766,2.766 0 0 0 0.172,-0.928 c 0.024,-0.5269995 0.029,-0.6849995 0.029,-2.0199995 0,-1.335 -0.005,-1.493 -0.03,-2.02 a 2.766,2.766 0 0 0 -0.171,-0.929 z M 7.4482758,10.654699 A 2.568,2.568 0 1 1 10.016276,8.0866995 2.568,2.568 0 0 1 7.4482758,10.654699 Z M 10.117276,6.0176995 a 0.6,0.6 0 1 1 0.6,-0.6 0.6,0.6 0 0 1 -0.6,0.6 z m -1.0020002,2.069 a 1.667,1.667 0 1 1 -1.667,-1.667 1.667,1.667 0 0 1 1.667,1.667 z m -1.667,-9.6 a 9.6,9.6 0 1 0 9.6000002,9.6 9.6,9.6 0 0 0 -9.6000002,-9.6 z M 12.418276,10.147699 a 3.67,3.67 0 0 1 -0.233,1.214 2.556,2.556 0 0 1 -1.462,1.462 3.67,3.67 0 0 1 -1.2130002,0.233 c -0.534,0.024 -0.704,0.03 -2.062,0.03 -1.358,0 -1.528,-0.006 -2.062,-0.03 a 3.67,3.67 0 0 1 -1.213,-0.233 2.556,2.556 0 0 1 -1.462,-1.462 3.67,3.67 0 0 1 -0.233,-1.213 c -0.024,-0.5339995 -0.03,-0.7039995 -0.03,-2.0619995 0,-1.358 0.006,-1.528 0.03,-2.062 a 3.67,3.67 0 0 1 0.232,-1.213 2.556,2.556 0 0 1 1.463,-1.463 3.67,3.67 0 0 1 1.213,-0.232 c 0.534,-0.024 0.704,-0.03 2.062,-0.03 1.358,0 1.528,0.006 2.062,0.03 a 3.67,3.67 0 0 1 1.2130002,0.232 2.556,2.556 0 0 1 1.462,1.463 3.67,3.67 0 0 1 0.233,1.213 c 0.024,0.534 0.03,0.704 0.03,2.062 0,1.358 -0.006,1.528 -0.03,2.0619995 z"
       id="path2"
       style="fill:none" />
    <g
       id="Imagotipo"
       transform="matrix(0.00778337,0,0,0.00778337,2.2053955,3.9240808)">
      <path
         class="cls-1"
         d="m 210.23,157.11 a 72.56,72.56 0 0 1 -145.12,0 h 26.78 a 45.78,45.78 0 1 0 59.17,-43.76 v 43.76 H 124.28 V 85.79 a 72.64,72.64 0 0 1 85.95,71.32 z"
         id="path3406"
         style="fill:#ffffff" />
      <path
         class="cls-1"
         d="m 297.4,229.67 a 72.56,72.56 0 1 1 0,-145.11 v 26.78 a 45.78,45.78 0 1 0 43.76,59.16 H 297.4 v -26.78 h 71.32 a 72.59,72.59 0 0 1 -71.32,85.95 z"
         id="path3408"
         style="fill:#ffffff" />
      <path
         class="cls-1"
         d="m 457.13,84.56 a 72.56,72.56 0 1 0 0,145.11 v -26.78 a 45.78,45.78 0 1 1 43.76,-59.17 h -43.76 v 26.78 h 71.32 A 72.58,72.58 0 0 0 457.13,84.56 Z"
         id="path3410"
         style="fill:#ffffff" />
    </g>
  </g>
</svg>
