<?xml version="1.0" encoding="UTF-8" standalone="no"?>
<svg
   class="icon icon-tabler icon-tabler-brand-discord"
   width="256"
   height="256"
   viewBox="0 0 256 256"
   stroke-width="2"
   stroke="currentColor"
   fill="none"
   stroke-linecap="round"
   stroke-linejoin="round"
   version="1.1"
   id="svg696"
   sodipodi:docname="Linkedin.svg"
   inkscape:version="1.3.2 (091e20ef0f, 2023-11-25)"
   inkscape:export-filename="Linkedin.png"
   inkscape:export-xdpi="96"
   inkscape:export-ydpi="96"
   xmlns:inkscape="http://www.inkscape.org/namespaces/inkscape"
   xmlns:sodipodi="http://sodipodi.sourceforge.net/DTD/sodipodi-0.dtd"
   xmlns="http://www.w3.org/2000/svg"
   xmlns:svg="http://www.w3.org/2000/svg">
  <defs
     id="defs700" />
  <sodipodi:namedview
     id="namedview698"
     pagecolor="#505050"
     bordercolor="#ffffff"
     borderopacity="1"
     inkscape:showpageshadow="0"
     inkscape:pageopacity="0"
     inkscape:pagecheckerboard="1"
     inkscape:deskcolor="#505050"
     showgrid="false"
     inkscape:zoom="1.3115788"
     inkscape:cx="-0.38121995"
     inkscape:cy="134.18942"
     inkscape:window-width="1920"
     inkscape:window-height="934"
     inkscape:window-x="0"
     inkscape:window-y="44"
     inkscape:window-maximized="1"
     inkscape:current-layer="svg696" />
  <circle
     style="fill:#00c389;fill-opacity:1;stroke:none;stroke-width:10;stroke-dasharray:none;stroke-opacity:1"
     id="path3868"
     cx="128"
     cy="128"
     r="128" />
  <path
     stroke="none"
     d="M 0,0 H 24 V 24 H 0 Z"
     fill="none"
     id="path686" />
  <g
     id="g1"
     transform="matrix(0.87531534,0,0,0.87531534,15.682499,15.959636)"
     style="fill:none;stroke:#ffffff;stroke-opacity:1">
    <path
       d="m 52.153608,51.83699 m 0,19.040752 A 19.040751,19.040751 0 0 1 71.194361,51.83699 H 185.43886 a 19.040751,19.040751 0 0 1 19.04076,19.040752 V 185.12225 a 19.040751,19.040751 0 0 1 -19.04076,19.04076 H 71.194361 A 19.040751,19.040751 0 0 1 52.153608,185.12225 Z"
       id="path2"
       style="fill:none;stroke:#ffffff;stroke-width:19.0408;stroke-opacity:1" />
    <path
       d="m 90.235107,104.19906 v 47.60188"
       id="path3"
       style="fill:none;stroke:#ffffff;stroke-width:19.0408;stroke-opacity:1" />
    <path
       d="m 90.235107,127.95239 v 0.0952"
       id="path4"
       style="fill:none;stroke:#ffffff;stroke-width:19.0408;stroke-opacity:1" />
    <path
       d="M 128.31661,151.80094 V 104.19906"
       id="path5"
       style="fill:none;stroke:#ffffff;stroke-width:19.0408;stroke-opacity:1" />
    <path
       d="m 166.39812,151.80094 v -28.56113 a 19.040755,19.040755 0 0 0 -38.08151,0"
       id="path6"
       style="fill:none;stroke:#ffffff;stroke-width:19.0408;stroke-opacity:1" />
  </g>
</svg>
