<?xml version="1.0" encoding="UTF-8" standalone="no"?>
<svg
   class="icon icon-tabler icon-tabler-brand-twitter"
   width="256"
   height="256"
   viewBox="0 0 256 256"
   stroke-width="2"
   stroke="currentColor"
   fill="none"
   stroke-linecap="round"
   stroke-linejoin="round"
   version="1.1"
   id="svg11416"
   sodipodi:docname="Twitter.svg"
   inkscape:version="1.3 (0e150ed6c4, 2023-07-21)"
   inkscape:export-filename="Twitter.png"
   inkscape:export-xdpi="96"
   inkscape:export-ydpi="96"
   xmlns:inkscape="http://www.inkscape.org/namespaces/inkscape"
   xmlns:sodipodi="http://sodipodi.sourceforge.net/DTD/sodipodi-0.dtd"
   xmlns="http://www.w3.org/2000/svg"
   xmlns:svg="http://www.w3.org/2000/svg">
  <defs
     id="defs11420" />
  <sodipodi:namedview
     id="namedview11418"
     pagecolor="#505050"
     bordercolor="#ffffff"
     borderopacity="1"
     inkscape:showpageshadow="0"
     inkscape:pageopacity="0"
     inkscape:pagecheckerboard="1"
     inkscape:deskcolor="#505050"
     showgrid="false"
     inkscape:zoom="2.225305"
     inkscape:cx="41.792024"
     inkscape:cy="148.74366"
     inkscape:window-width="1920"
     inkscape:window-height="934"
     inkscape:window-x="0"
     inkscape:window-y="44"
     inkscape:window-maximized="1"
     inkscape:current-layer="svg11416" />
  <circle
     style="fill:#00c389;fill-opacity:1;stroke:none;stroke-width:10;stroke-dasharray:none;stroke-opacity:1"
     id="path3868"
     cx="128"
     cy="127.09177"
     r="128" />
  <path
     stroke="none"
     d="M 0,0 H 24 V 24 H 0 Z"
     fill="none"
     id="path11412" />
  <path
     d="m 200.7272,70.437832 c -7.27283,3.563684 -14.40021,5.010979 -21.81851,7.200102 -8.15285,-9.20014 -20.2403,-9.709226 -31.85501,-5.36007 -11.61473,4.349155 -19.22212,14.982038 -19.05485,27.178585 v 7.272831 c -23.60036,0.60366 -44.618865,-10.145604 -58.182699,-29.091346 0,0 -30.415009,54.058996 29.091351,80.001216 -13.614751,9.06923 -27.193137,15.18568 -43.637024,14.54567 24.058546,13.11292 50.277132,17.62209 72.975652,11.03289 26.03676,-7.56374 47.43345,-27.07677 55.64449,-56.3063 a 100.65607,100.65607 0 0 0 3.61459,-27.294953 c 0,-1.810946 10.98198,-20.160313 13.22201,-29.185894 z"
     id="path11414"
     style="fill:none;stroke:#ffffff;stroke-width:14.5456;stroke-opacity:1" />
</svg>
