<?xml version="1.0" encoding="UTF-8" standalone="no"?>
<svg
   class="icon icon-tabler icon-tabler-brand-twitter"
   width="256"
   height="256"
   viewBox="0 0 256 256"
   stroke-width="2"
   stroke="currentColor"
   fill="none"
   stroke-linecap="round"
   stroke-linejoin="round"
   version="1.1"
   id="svg11416"
   sodipodi:docname="Twitter.svg"
   inkscape:version="1.2.2 (b0a8486541, 2022-12-01)"
   inkscape:export-filename="Twitter.png"
   inkscape:export-xdpi="96"
   inkscape:export-ydpi="96"
   xmlns:inkscape="http://www.inkscape.org/namespaces/inkscape"
   xmlns:sodipodi="http://sodipodi.sourceforge.net/DTD/sodipodi-0.dtd"
   xmlns="http://www.w3.org/2000/svg"
   xmlns:svg="http://www.w3.org/2000/svg">
  <defs
     id="defs11420" />
  <sodipodi:namedview
     id="namedview11418"
     pagecolor="#505050"
     bordercolor="#ffffff"
     borderopacity="1"
     inkscape:showpageshadow="0"
     inkscape:pageopacity="0"
     inkscape:pagecheckerboard="1"
     inkscape:deskcolor="#505050"
     showgrid="false"
     inkscape:zoom="2.225305"
     inkscape:cx="41.792024"
     inkscape:cy="148.96834"
     inkscape:window-width="1920"
     inkscape:window-height="934"
     inkscape:window-x="0"
     inkscape:window-y="44"
     inkscape:window-maximized="1"
     inkscape:current-layer="svg11416" />
  <circle
     style="fill:#00c389;fill-opacity:1;stroke:none;stroke-width:10;stroke-dasharray:none;stroke-opacity:1"
     id="path3868"
     cx="128"
     cy="128"
     r="128" />
  <path
     stroke="none"
     d="M 0,0 H 24 V 24 H 0 Z"
     fill="none"
     id="path11412" />
  <path
     d="m 209.81809,63.242571 c -8.18194,4.009144 -16.20024,5.63735 -24.54582,8.100113 -9.17196,-10.350156 -22.77034,-10.922877 -35.83689,-6.030078 -13.06657,4.892799 -21.62488,16.854791 -21.4367,30.575904 v 8.18193 c -26.5504,0.67912 -50.196212,-11.413799 -65.455523,-32.727756 0,0 -34.216881,60.816366 32.727765,90.001356 -15.316593,10.20288 -30.592275,17.08389 -49.091645,16.36388 27.065861,14.75203 56.561763,19.82484 82.097593,12.412 29.29135,-8.50921 53.36263,-30.46137 62.60004,-63.34458 a 113.23806,113.23806 0 0 0 4.06642,-30.706821 c 0,-2.037314 12.35472,-22.680349 14.87476,-32.834126 z"
     id="path11414"
     style="fill:none;stroke:#ffffff;stroke-width:16.3638;stroke-opacity:1" />
</svg>
