<?xml version="1.0" encoding="UTF-8" standalone="no"?>
<svg
   version="1.0"
   width="256pt"
   height="256pt"
   viewBox="0 0 256 256"
   preserveAspectRatio="xMidYMid"
   id="svg12016"
   sodipodi:docname="AMAT.svg"
   inkscape:export-filename="/home/hipy/amat/logos/presidencia.png"
   inkscape:export-xdpi="96"
   inkscape:export-ydpi="96"
   inkscape:version="1.2.2 (732a01da63, 2022-12-09)"
   xmlns:inkscape="http://www.inkscape.org/namespaces/inkscape"
   xmlns:sodipodi="http://sodipodi.sourceforge.net/DTD/sodipodi-0.dtd"
   xmlns="http://www.w3.org/2000/svg"
   xmlns:svg="http://www.w3.org/2000/svg">
  <defs
     id="defs12020" />
  <sodipodi:namedview
     id="namedview12018"
     pagecolor="#ffffff"
     bordercolor="#666666"
     borderopacity="1.0"
     inkscape:pageshadow="2"
     inkscape:pageopacity="0.0"
     inkscape:pagecheckerboard="true"
     inkscape:document-units="pt"
     showgrid="false"
     inkscape:zoom="4.1903259"
     inkscape:cx="123.02146"
     inkscape:cy="173.73351"
     inkscape:window-width="3840"
     inkscape:window-height="2054"
     inkscape:window-x="2869"
     inkscape:window-y="-11"
     inkscape:window-maximized="1"
     inkscape:current-layer="g60084"
     inkscape:showpageshadow="2"
     inkscape:deskcolor="#d1d1d1" />
  <g
     id="g21517">
    <g
       id="g60084"
       transform="translate(8.5700433,-9.3624759)">
      <g
         id="g6205"
         transform="matrix(0.13333333,0,0,0.13333333,-7.4273643,8.1141474)"
         inkscape:export-filename="AMAT.png"
         inkscape:export-xdpi="72"
         inkscape:export-ydpi="72">
        <circle
           style="fill:#ffffff;fill-opacity:0.99536;fill-rule:evenodd;stroke-width:0.792497"
           id="path564"
           cx="951.42993"
           cy="969.36249"
           r="960" />
        <g
           transform="matrix(0.10425883,0,0,-0.10425883,-34.807421,1712.2564)"
           fill="#000000"
           stroke="none"
           id="g12014">
          <path
             d="m 9390,12181 c -66,-40 -110,-102 -110,-156 0,-41 -2,-44 -37,-56 -21,-6 -94,-34 -163,-62 -69,-27 -159,-62 -200,-77 -144,-52 -337,-128 -376,-148 -21,-10 -84,-34 -139,-52 -54,-18 -133,-49 -175,-68 -41,-19 -106,-45 -145,-58 -38,-12 -146,-55 -240,-94 -93,-39 -208,-84 -255,-100 -47,-16 -134,-49 -195,-75 -60,-26 -141,-57 -180,-70 -38,-12 -104,-38 -145,-57 -42,-19 -114,-48 -160,-63 -47,-15 -103,-37 -125,-48 -35,-17 -170,-70 -390,-153 -33,-12 -107,-41 -165,-64 -58,-23 -132,-52 -166,-64 -34,-13 -66,-26 -72,-30 -6,-3 -33,8 -60,24 -119,74 -267,10 -280,-120 -6,-60 10,-109 47,-144 l 29,-28 -33,-71 c -18,-40 -60,-130 -93,-202 -33,-71 -78,-177 -100,-235 -21,-58 -57,-141 -79,-185 -22,-44 -44,-91 -48,-105 -9,-32 -130,-306 -210,-480 -35,-74 -87,-191 -115,-260 -52,-125 -66,-156 -223,-501 -46,-103 -93,-211 -102,-240 -10,-30 -35,-88 -55,-129 -21,-42 -59,-129 -85,-195 -26,-66 -73,-176 -105,-245 -88,-189 -140,-309 -140,-320 0,-6 -16,-10 -35,-10 -60,0 -124,-38 -158,-92 -17,-26 -34,-48 -38,-48 -5,0 -9,-13 -9,-30 0,-16 4,-30 9,-30 5,0 14,-13 21,-29 28,-69 124,-129 190,-119 19,3 27,-8 62,-87 22,-49 71,-155 108,-235 38,-80 80,-174 94,-210 13,-36 46,-110 72,-165 25,-55 57,-127 70,-160 23,-62 135,-314 198,-446 20,-42 36,-79 36,-83 0,-6 36,-88 81,-182 10,-23 19,-44 19,-47 0,-3 16,-40 35,-81 19,-42 35,-78 35,-81 0,-5 34,-81 81,-183 16,-34 29,-65 29,-68 0,-3 12,-31 26,-62 14,-31 120,-275 236,-541 232,-537 229,-531 243,-528 6,1 12,-29 15,-69 6,-79 24,-114 73,-144 54,-33 122,-25 172,21 20,18 22,18 75,-7 30,-15 93,-41 140,-59 124,-49 280,-124 280,-135 0,-5 -4,-19 -10,-32 -5,-13 -77,-221 -159,-463 -82,-242 -153,-448 -156,-458 -7,-17 -115,259 -342,878 -36,99 -85,232 -109,295 -23,63 -131,351 -238,640 -216,577 -228,607 -292,696 -88,125 -151,158 -305,158 -102,1 -107,0 -181,-36 -61,-31 -93,-56 -164,-131 -83,-86 -150,-187 -920,-1387 -457,-712 -834,-1300 -837,-1306 -4,-6 0,-32 9,-58 l 16,-46 385,2 385,3 572,893 c 315,491 577,897 582,902 6,6 29,-43 63,-138 56,-154 284,-774 296,-804 7,-17 -16,-18 -397,-18 -373,0 -406,-1 -420,-17 -12,-15 -451,-684 -471,-719 -4,-6 0,-32 9,-58 l 16,-46 h 1477 1478 l 71,218 c 39,119 112,344 162,500 87,266 93,282 114,276 11,-3 71,-28 131,-54 61,-27 139,-60 175,-74 l 65,-26 77,-298 c 85,-331 105,-391 152,-459 70,-101 164,-141 310,-129 172,13 273,99 402,343 27,51 54,93 61,93 22,0 197,-67 263,-100 36,-18 108,-50 160,-70 52,-21 139,-57 193,-81 l 97,-44 v -48 -47 l 687,2 686,3 172,269 c 95,147 179,276 188,286 8,10 37,25 63,34 27,10 71,26 98,37 27,10 51,17 52,16 2,-2 -45,-77 -104,-168 -59,-90 -140,-214 -180,-275 l -72,-111 16,-46 16,-47 h 1188 1187 l 17,43 16,43 -225,602 c -124,332 -225,604 -225,606 0,2 48,23 106,45 l 105,42 32,-27 c 81,-68 189,-71 260,-6 30,27 57,88 57,127 0,42 -31,108 -61,128 l -21,15 35,79 c 61,137 103,236 132,310 l 28,73 h 404 403 l -5,-22 c -2,-13 -61,-466 -130,-1007 -124,-975 -125,-984 -107,-1015 l 18,-31 336,-3 337,-2 6,42 c 3,24 63,491 133,1038 l 127,995 356,3 357,2 248,362 c 137,199 252,367 256,373 4,6 0,35 -8,63 l -16,52 h -1163 -1164 l -22,-27 c -12,-16 -19,-21 -16,-13 19,48 113,262 160,365 31,66 79,176 107,245 29,69 74,175 101,236 27,62 49,115 49,119 0,7 52,126 155,355 23,52 56,129 73,170 56,134 120,284 151,353 l 31,67 h 42 c 51,0 122,33 146,67 9,14 25,33 35,44 11,13 17,35 17,68 0,43 -5,55 -37,91 -47,52 -100,80 -151,80 -44,0 -32,-19 -137,225 -26,61 -72,166 -102,235 -31,69 -72,166 -92,215 -21,50 -67,153 -103,230 -70,151 -97,211 -178,405 -77,183 -129,306 -160,380 -15,36 -49,117 -76,180 -26,63 -90,210 -142,325 -52,116 -110,248 -129,295 -19,47 -60,139 -90,205 -31,66 -64,142 -74,170 -9,27 -39,97 -64,155 -82,184 -77,170 -60,176 9,4 27,26 41,51 22,36 26,53 22,94 -14,145 -196,211 -310,112 -18,-16 -45,-9 -258,76 -58,24 -130,51 -160,61 -30,10 -116,44 -190,75 -74,32 -187,76 -250,100 -132,49 -231,88 -450,174 -85,34 -258,102 -385,151 -126,49 -300,117 -385,151 -244,96 -326,128 -465,179 -71,26 -184,71 -250,100 -66,28 -149,62 -185,74 -36,13 -136,50 -222,82 l -158,59 v 35 c -1,41 -29,108 -56,132 -31,27 -115,68 -138,67 -12,0 -41,-13 -66,-28 z m -65,-278 33,-26 -35,-76 c -20,-42 -53,-119 -73,-171 -21,-52 -53,-129 -72,-170 -19,-41 -52,-117 -72,-169 -20,-52 -53,-125 -72,-163 -19,-38 -45,-97 -58,-131 -13,-34 -49,-116 -79,-182 -65,-141 -103,-230 -265,-615 -65,-156 -139,-326 -204,-473 -73,-164 -52,-157 -241,-73 -67,29 -168,70 -225,90 -56,21 -151,57 -210,82 -191,80 -405,165 -492,196 -46,17 -129,50 -185,75 -55,25 -134,57 -175,73 -272,102 -599,231 -720,285 -41,18 -106,44 -143,56 l -68,24 3,40 c 3,38 4,40 78,71 41,18 118,49 170,69 52,20 104,41 115,45 11,5 44,18 73,29 28,12 76,30 105,42 28,11 61,24 72,29 11,4 63,25 115,45 52,20 104,41 115,45 11,5 45,19 75,30 107,42 135,54 177,72 23,10 48,18 55,18 8,0 18,4 24,8 5,4 36,18 69,31 87,33 157,61 180,71 11,5 63,25 115,45 52,20 104,40 115,45 11,5 85,35 165,65 80,31 159,62 175,69 17,7 46,19 65,26 19,7 71,28 115,46 44,18 123,49 175,69 52,19 104,40 115,45 22,10 106,43 170,67 22,8 54,21 70,28 17,8 73,30 125,50 52,20 104,40 115,45 11,5 63,26 115,46 52,20 109,42 125,49 86,36 130,54 133,55 2,0 18,-12 37,-27 z m 520,-57 c 39,-14 79,-31 90,-36 11,-5 45,-19 75,-30 30,-11 64,-25 75,-30 11,-5 45,-19 75,-31 30,-11 82,-32 115,-46 33,-14 112,-44 175,-68 104,-39 155,-59 215,-84 11,-5 38,-15 60,-24 64,-24 148,-57 170,-67 11,-4 63,-25 115,-45 52,-20 127,-50 165,-65 39,-16 113,-45 165,-65 52,-20 109,-42 125,-49 17,-8 73,-30 125,-50 52,-20 104,-41 115,-46 11,-5 63,-25 115,-45 52,-20 104,-40 115,-45 22,-10 86,-35 180,-71 33,-13 64,-27 69,-31 6,-4 16,-8 24,-8 8,0 28,-6 45,-14 44,-21 310,-126 372,-148 17,-6 34,-15 39,-19 6,-5 17,-9 25,-9 9,-1 34,-9 56,-20 22,-11 45,-19 52,-20 6,0 24,-6 40,-14 15,-8 47,-22 71,-32 32,-13 42,-22 42,-40 0,-12 3,-29 6,-37 4,-11 -8,-19 -45,-32 -27,-9 -105,-39 -173,-66 -68,-28 -148,-59 -178,-69 -63,-21 -270,-104 -303,-122 -12,-6 -76,-31 -142,-56 -226,-83 -270,-100 -375,-147 -58,-26 -143,-60 -190,-76 -47,-15 -161,-60 -255,-99 -93,-39 -208,-84 -255,-100 -47,-15 -141,-53 -210,-83 -69,-30 -143,-60 -165,-67 -22,-7 -57,-21 -78,-32 -22,-11 -40,-18 -42,-16 -6,6 -74,167 -120,283 -69,173 -131,319 -195,455 -69,149 -154,349 -185,440 -13,36 -53,131 -89,211 -36,81 -66,151 -66,155 0,5 -18,47 -39,94 -22,47 -63,141 -92,210 -29,69 -77,184 -106,255 -30,72 -60,142 -66,157 -10,24 -8,31 12,52 l 23,25 77,-29 c 42,-15 108,-40 146,-54 z m -330,-12 c 8,-9 15,-19 15,-24 0,-4 16,-43 36,-87 20,-43 42,-94 51,-113 8,-19 21,-48 28,-65 8,-16 22,-50 33,-75 11,-25 28,-65 40,-90 11,-25 32,-74 46,-110 30,-72 49,-115 76,-175 26,-56 167,-384 230,-535 28,-69 65,-154 82,-190 65,-140 226,-518 243,-570 10,-30 36,-93 57,-139 21,-46 37,-85 36,-87 -2,-1 -37,-16 -78,-32 -41,-17 -131,-54 -200,-82 -69,-29 -147,-60 -175,-70 -27,-10 -97,-37 -155,-60 -118,-47 -227,-89 -252,-97 -9,-3 -32,7 -52,22 -68,52 -172,46 -237,-12 l -40,-36 -37,16 c -20,8 -84,34 -142,58 -58,23 -152,62 -210,86 -58,25 -188,76 -290,114 -101,38 -188,73 -192,77 -7,7 57,165 132,327 10,22 28,63 40,90 11,28 25,59 30,70 9,20 18,43 60,140 12,28 27,64 35,80 12,27 42,96 65,150 5,11 23,51 40,89 17,38 62,143 101,235 39,91 79,184 89,206 10,22 71,162 135,310 64,149 124,288 135,310 27,59 46,102 75,174 41,98 50,109 95,109 23,1 46,-6 55,-14 z M 6017,10456 c 32,-13 83,-34 113,-45 30,-12 64,-26 75,-31 11,-5 85,-34 165,-65 80,-31 154,-60 165,-64 11,-5 63,-26 115,-46 52,-20 127,-50 165,-65 39,-16 165,-65 280,-111 116,-45 224,-88 240,-95 17,-7 73,-29 125,-49 52,-20 109,-42 125,-49 64,-28 287,-117 376,-150 52,-18 146,-56 209,-84 63,-28 128,-54 143,-57 35,-9 34,-21 -7,-103 -34,-67 -179,-402 -234,-542 -17,-41 -44,-105 -61,-141 l -30,-66 -55,-5 c -91,-8 -157,-71 -166,-161 l -5,-49 -160,-60 c -88,-34 -194,-73 -235,-88 -82,-30 -304,-118 -390,-154 -98,-42 -96,-43 -121,11 -12,26 -28,62 -35,78 -7,17 -24,55 -37,85 -14,30 -89,204 -167,385 -78,182 -174,402 -212,490 -67,154 -80,183 -118,270 -10,22 -27,65 -38,95 -11,30 -40,98 -65,150 -24,52 -82,183 -127,290 -45,107 -98,231 -117,275 -49,114 -49,110 -11,144 18,17 34,31 35,31 1,0 28,-11 60,-24 z m 6993,-11 24,-25 -33,-73 c -19,-39 -50,-115 -71,-167 -21,-52 -53,-129 -72,-170 -19,-41 -52,-117 -72,-169 -20,-52 -53,-125 -72,-163 -19,-38 -45,-97 -58,-131 -13,-34 -49,-116 -79,-182 -65,-141 -103,-230 -265,-615 -65,-155 -139,-326 -204,-472 -54,-124 -62,-136 -79,-127 -10,5 -64,25 -119,44 -55,20 -162,60 -238,91 -75,31 -157,64 -182,74 -25,10 -90,37 -145,60 -55,22 -116,46 -136,52 -34,10 -37,14 -43,58 -12,93 -90,160 -185,160 -29,0 -42,6 -53,23 -19,29 -348,791 -348,806 0,14 63,44 250,115 52,20 104,41 115,46 22,10 109,44 165,65 19,7 69,27 110,44 41,16 152,60 245,96 224,88 483,190 570,225 39,16 113,45 165,65 52,20 104,41 115,45 11,5 44,18 73,29 28,12 76,30 105,42 28,11 61,24 72,29 11,5 63,25 115,45 52,20 104,40 115,45 151,67 180,72 215,35 z m -7155,-95 c 14,-27 39,-84 56,-127 51,-130 199,-474 234,-543 18,-36 38,-83 45,-105 7,-22 61,-150 120,-285 104,-236 125,-285 240,-560 28,-69 99,-232 157,-362 97,-219 109,-258 81,-258 -5,0 -60,-22 -122,-49 -61,-27 -131,-54 -155,-61 -24,-6 -91,-32 -149,-56 -160,-69 -293,-121 -340,-134 -24,-6 -106,-38 -183,-70 -77,-33 -164,-67 -195,-76 -31,-9 -90,-32 -132,-51 -43,-19 -131,-54 -197,-78 -66,-23 -176,-65 -245,-92 -187,-75 -244,-97 -365,-143 -60,-23 -135,-52 -166,-66 -31,-13 -62,-24 -68,-24 -7,0 -25,-7 -41,-15 -28,-14 -30,-14 -48,13 -19,27 -19,27 4,77 12,28 32,73 44,100 26,61 30,70 74,168 20,42 36,80 36,83 0,3 11,30 25,60 14,30 126,289 250,577 125,287 235,540 245,562 33,72 60,134 60,139 0,4 33,79 75,171 47,102 75,166 75,171 0,5 18,46 65,149 12,28 105,241 205,475 101,234 191,432 201,442 10,9 35,16 54,16 33,0 38,-4 60,-48 z m 7345,10 c 23,-44 80,-168 80,-176 0,-5 25,-64 55,-129 30,-64 61,-136 265,-609 117,-269 223,-515 237,-545 13,-31 28,-65 33,-76 28,-67 53,-124 65,-150 8,-16 23,-52 35,-80 12,-27 25,-59 30,-70 32,-72 50,-115 50,-119 0,-2 16,-40 35,-83 20,-43 40,-87 45,-98 5,-11 19,-42 30,-70 12,-27 30,-68 40,-90 10,-22 91,-209 180,-415 89,-206 166,-379 171,-384 16,-18 9,-52 -16,-76 l -25,-23 -62,21 c -35,11 -101,37 -148,57 -47,21 -107,46 -135,55 -27,10 -88,35 -135,55 -74,33 -170,69 -480,185 -41,16 -120,48 -175,73 -55,24 -146,61 -203,81 -56,21 -151,57 -210,82 -190,80 -405,165 -491,196 -46,16 -139,54 -205,83 -67,29 -131,56 -144,60 -13,4 -21,12 -19,18 3,7 32,73 65,147 33,74 144,331 247,570 103,239 198,458 210,485 13,28 50,113 83,190 33,77 79,183 102,235 23,52 49,111 57,130 18,44 34,80 66,150 14,30 37,84 52,120 14,36 32,79 39,95 65,148 60,143 124,141 27,-1 37,-7 52,-36 z M 8890,9318 c 47,-20 133,-56 192,-82 59,-25 112,-46 118,-46 5,0 25,-8 45,-17 31,-15 35,-21 35,-55 0,-44 30,-110 59,-130 19,-13 18,-16 -20,-97 -21,-46 -50,-113 -63,-150 -13,-36 -42,-104 -64,-151 -21,-47 -55,-125 -75,-175 -19,-49 -54,-128 -76,-174 -23,-47 -41,-91 -41,-99 0,-17 -19,-11 -120,33 -74,33 -224,92 -370,145 -131,48 -365,142 -376,151 -6,5 -9,20 -7,33 6,32 -39,131 -66,145 -27,15 -26,30 3,94 13,29 42,97 66,152 24,55 51,118 61,140 10,22 57,130 104,239 48,110 90,207 95,217 8,15 32,8 212,-61 112,-42 241,-93 288,-112 z m 1660,122 c 15,-36 57,-135 92,-220 36,-85 74,-173 85,-195 11,-22 26,-58 33,-80 7,-22 37,-94 67,-159 l 54,-119 -24,-26 c -30,-32 -49,-67 -57,-105 -5,-26 -15,-34 -80,-59 -41,-16 -102,-41 -135,-54 -33,-14 -91,-38 -130,-53 -208,-82 -387,-154 -445,-179 -103,-45 -95,-47 -120,21 -12,34 -59,140 -105,237 -45,97 -86,187 -90,201 -7,25 -53,132 -106,249 l -30,64 30,31 c 37,38 64,101 57,131 -9,36 5,45 187,116 28,11 61,24 72,29 11,4 63,25 115,45 144,55 172,67 205,80 17,7 73,29 125,49 52,20 106,43 120,51 39,23 51,15 80,-55 z M 9521,8918 c 21,-39 100,-222 119,-274 10,-29 46,-112 80,-185 61,-132 69,-148 108,-239 36,-84 36,-85 -5,-103 -21,-9 -67,-27 -103,-40 -36,-14 -112,-45 -170,-70 l -105,-46 -85,29 c -47,15 -120,43 -162,63 -42,19 -87,38 -100,42 -54,17 -54,12 32,200 10,22 44,101 75,175 32,74 71,164 87,200 42,93 45,100 68,155 48,113 50,115 102,115 39,0 49,-4 59,-22 z m 1360,-552 c 4,-5 -4,-34 -18,-65 -40,-88 -92,-209 -128,-296 -33,-81 -122,-286 -177,-407 l -30,-66 -52,18 c -28,10 -85,33 -126,52 -41,19 -107,44 -146,56 -39,12 -76,27 -82,34 -6,7 -24,47 -40,88 -17,41 -53,125 -80,187 -37,81 -47,114 -39,120 7,5 39,19 72,32 33,12 92,36 130,51 39,16 113,45 165,65 52,20 104,40 115,45 11,5 44,18 73,29 28,12 76,30 105,42 28,11 61,24 72,28 11,5 43,18 70,29 l 50,21 30,-27 c 16,-15 33,-31 36,-36 z m -3075,33 c 26,-30 98,-59 145,-59 35,0 40,-4 60,-42 12,-23 41,-89 64,-147 54,-133 191,-452 238,-551 l 35,-76 -72,-32 c -39,-17 -96,-40 -126,-51 -56,-20 -154,-59 -315,-126 -49,-21 -154,-63 -232,-95 l -143,-57 -22,24 c -29,32 -81,53 -127,53 -20,0 -41,4 -47,8 -6,4 -37,68 -69,142 -31,74 -71,164 -87,200 -42,94 -45,100 -68,155 -11,28 -27,62 -35,77 -8,14 -15,31 -15,36 0,6 -20,53 -45,106 -25,53 -45,101 -45,107 0,5 17,17 38,25 20,8 51,22 69,30 17,8 36,14 41,14 6,0 23,6 39,14 15,8 46,21 68,29 60,22 147,57 170,67 11,5 63,26 115,46 52,20 109,42 125,49 17,7 50,20 75,30 25,9 59,23 75,30 44,20 69,18 91,-6 z m 469,-46 c 77,-31 169,-66 205,-79 129,-46 475,-185 485,-196 5,-4 -131,-321 -152,-356 -9,-14 -202,-101 -304,-137 -37,-13 -76,-28 -87,-34 -18,-10 -23,-3 -62,77 -44,91 -187,423 -238,552 -17,41 -42,100 -56,130 l -25,55 26,27 c 31,33 19,35 208,-39 z m 2942,51 c 65,-29 97,-42 138,-57 64,-24 148,-57 170,-67 11,-5 63,-25 115,-45 52,-20 109,-42 125,-49 30,-14 56,-24 175,-70 36,-13 69,-31 74,-38 5,-9 -4,-38 -27,-83 -35,-70 -179,-403 -235,-545 -17,-41 -44,-105 -61,-142 l -31,-68 h -46 c -47,0 -94,-19 -131,-52 -15,-14 -28,-18 -40,-13 -10,4 -45,18 -78,30 -33,13 -107,42 -165,65 -58,23 -132,52 -165,65 -366,137 -457,175 -451,190 3,6 28,62 56,125 28,63 76,174 106,245 199,467 188,445 225,445 51,0 110,22 138,51 30,33 56,35 108,13 z M 6945,7820 c 24,-58 63,-150 88,-205 25,-55 48,-111 52,-125 4,-14 32,-78 61,-143 30,-65 54,-124 54,-131 0,-7 -11,-23 -25,-36 -13,-12 -31,-44 -40,-70 -14,-42 -14,-51 0,-91 9,-24 28,-56 42,-71 l 26,-28 -25,-57 c -28,-62 -100,-233 -138,-323 -60,-146 -102,-244 -144,-340 -25,-58 -46,-106 -46,-107 0,-4 -71,24 -195,77 -55,24 -140,57 -190,75 -49,18 -202,79 -340,135 -137,57 -286,115 -330,131 -44,15 -134,51 -200,79 -66,28 -150,62 -186,75 -36,12 -78,29 -95,38 -16,8 -94,39 -174,67 -80,29 -190,72 -245,96 -55,24 -103,44 -108,44 -5,0 -48,17 -96,39 -47,21 -121,51 -163,66 -76,27 -78,28 -78,61 0,39 6,42 180,109 52,20 104,41 115,45 11,5 43,18 70,28 28,11 88,36 135,55 47,19 119,47 160,62 41,15 93,35 115,45 40,17 75,31 175,70 30,11 64,25 75,30 11,5 63,25 115,45 52,20 104,40 115,45 11,5 45,19 75,30 100,39 135,53 175,70 22,10 74,30 115,45 41,15 111,42 155,61 44,18 123,49 175,69 52,20 129,50 170,66 41,17 91,37 110,44 19,7 62,24 95,38 l 60,25 34,-67 c 19,-36 53,-113 76,-171 z m 2145,220 c 14,-4 57,-22 95,-40 39,-18 95,-41 125,-50 l 55,-18 -60,-27 c -97,-43 -155,-66 -230,-90 -38,-13 -96,-35 -129,-49 -35,-16 -56,-22 -53,-14 47,111 119,271 129,287 8,13 19,19 28,15 8,-3 26,-10 40,-14 z m 3365,-127 c 50,-19 99,-39 110,-43 20,-9 82,-33 180,-72 28,-10 59,-23 70,-28 11,-4 63,-25 115,-45 52,-20 104,-41 115,-45 24,-11 98,-40 180,-71 33,-13 64,-27 70,-31 5,-4 15,-8 23,-8 7,0 32,-8 55,-18 42,-18 70,-30 177,-72 30,-11 64,-25 75,-30 11,-5 63,-25 115,-45 52,-20 104,-40 115,-45 11,-5 119,-48 240,-95 403,-158 380,-147 382,-186 1,-19 -1,-39 -5,-45 -4,-5 -36,-21 -72,-33 -36,-13 -104,-41 -151,-62 -48,-22 -91,-39 -96,-39 -5,0 -53,-20 -108,-44 -55,-24 -165,-67 -245,-96 -80,-28 -158,-59 -174,-67 -17,-9 -59,-26 -95,-38 -36,-13 -120,-47 -186,-75 -66,-28 -156,-64 -200,-79 -44,-16 -192,-74 -330,-131 -137,-56 -290,-117 -340,-135 -49,-18 -135,-51 -190,-75 -135,-57 -193,-80 -205,-80 -5,0 -20,24 -33,53 -41,90 -77,174 -77,180 0,4 -16,39 -36,79 -20,40 -55,120 -79,178 -24,58 -64,152 -90,210 -61,138 -61,134 -32,153 30,20 67,93 67,133 -1,38 -31,103 -63,133 l -26,23 26,57 c 14,31 45,103 68,161 41,100 70,168 100,235 8,16 26,59 40,95 44,106 125,274 136,281 6,3 72,-18 148,-48 75,-30 177,-71 226,-90 z m -2516,54 c 19,-45 49,-115 68,-156 19,-40 32,-76 29,-78 -3,-3 -53,14 -113,36 -305,117 -373,145 -370,155 2,5 16,14 33,19 16,4 38,12 49,17 11,5 45,19 75,31 30,11 75,29 100,40 82,34 90,30 129,-64 z m -348,-127 c 68,-28 169,-67 224,-87 55,-20 105,-39 110,-43 6,-4 38,-17 72,-29 34,-13 68,-30 76,-39 8,-10 58,-116 110,-237 52,-121 104,-241 116,-266 12,-26 23,-55 23,-65 2,-21 -83,-225 -141,-343 -21,-42 -52,-112 -69,-156 l -32,-80 -93,-39 c -50,-21 -135,-54 -187,-73 -52,-19 -140,-53 -195,-75 -55,-22 -110,-42 -122,-45 -13,-3 -70,13 -140,41 -65,25 -201,77 -303,117 -102,39 -189,75 -194,80 -10,9 -78,165 -206,475 l -40,96 106,247 c 144,337 140,330 194,351 25,10 70,28 100,39 30,12 64,26 75,31 11,5 63,26 115,45 52,20 131,52 175,70 44,19 85,35 91,35 6,0 66,-23 135,-50 z m -824,-232 c -3,-7 -23,-56 -45,-108 -22,-52 -61,-144 -87,-205 -25,-60 -49,-118 -52,-127 -3,-10 -8,-18 -12,-18 -4,0 -39,72 -78,160 -66,149 -69,160 -54,175 10,8 22,15 27,15 5,0 36,12 69,26 33,14 67,27 75,30 8,3 44,18 80,34 75,32 84,35 77,18 z m 1478,-23 c 6,-2 64,-26 130,-53 106,-43 120,-52 118,-71 -4,-31 -117,-294 -129,-298 -5,-1 -24,34 -43,80 -19,45 -50,114 -69,152 -19,39 -49,104 -67,147 l -32,76 41,-14 c 22,-8 46,-16 51,-19 z m -1790,-321 87,-196 -83,-186 c -45,-103 -85,-190 -88,-194 -6,-6 -339,114 -446,162 -27,12 -88,35 -135,52 -47,17 -103,38 -125,48 -22,10 -64,26 -94,36 -61,22 -84,49 -79,95 3,33 6,34 133,85 72,29 147,59 168,68 20,9 42,16 47,16 6,0 18,5 28,10 9,6 64,28 122,51 58,22 116,45 130,51 97,40 236,96 241,97 4,1 46,-87 94,-195 z m 2133,187 c 25,-13 152,-65 262,-106 52,-20 109,-42 125,-49 17,-7 48,-20 70,-29 22,-8 83,-32 135,-52 108,-42 114,-44 191,-78 46,-20 57,-30 62,-53 7,-35 6,-36 -68,-64 -33,-12 -87,-34 -120,-47 -33,-14 -87,-36 -120,-48 -33,-13 -132,-53 -220,-90 -88,-37 -188,-78 -223,-91 -35,-13 -75,-30 -90,-38 l -27,-14 -54,117 c -30,64 -69,150 -87,192 l -32,76 63,142 c 35,78 69,159 76,179 11,35 27,62 35,62 3,0 12,-4 22,-9 z M 8635,6850 c 26,-63 67,-161 91,-218 24,-57 44,-105 44,-107 0,-2 -37,12 -82,31 -46,20 -113,46 -149,59 -36,12 -78,29 -92,36 l -26,14 72,162 c 54,122 75,159 83,150 6,-6 32,-64 59,-127 z m 1746,103 c 6,-16 17,-41 25,-56 8,-16 14,-32 14,-37 0,-4 18,-47 41,-95 22,-48 37,-91 32,-95 -4,-4 -21,-12 -38,-18 -16,-6 -84,-34 -150,-62 -172,-74 -161,-75 -121,16 18,44 59,133 89,198 31,65 61,132 66,147 13,36 28,37 42,2 z m -5868,-7 c 18,-8 75,-31 127,-51 52,-19 104,-40 115,-45 11,-5 63,-26 115,-46 52,-20 109,-42 125,-49 29,-13 80,-33 233,-91 37,-14 76,-29 87,-34 11,-5 44,-18 73,-29 28,-12 76,-30 105,-42 28,-11 61,-24 72,-29 11,-5 63,-26 115,-45 52,-20 109,-43 125,-50 17,-7 73,-29 125,-49 52,-20 104,-41 115,-46 11,-5 63,-26 115,-45 52,-20 109,-43 127,-51 17,-8 34,-14 38,-14 4,0 21,-6 38,-14 18,-8 75,-31 127,-51 52,-20 104,-41 115,-45 19,-9 71,-29 167,-67 27,-10 48,-23 48,-30 0,-6 -20,-53 -44,-105 -25,-51 -64,-138 -87,-193 -23,-55 -63,-149 -89,-210 -134,-315 -127,-298 -276,-640 -31,-71 -69,-161 -84,-200 -15,-38 -47,-113 -70,-165 -71,-160 -131,-303 -151,-355 -58,-153 -154,-355 -168,-355 -9,0 -33,-9 -53,-20 l -38,-20 -36,78 c -19,42 -44,98 -54,124 -11,26 -41,91 -68,145 -27,54 -66,141 -87,193 -21,52 -54,129 -75,170 -21,41 -41,86 -45,100 -11,36 -158,367 -204,458 -21,42 -62,133 -91,202 -111,265 -140,331 -174,398 -44,88 -160,347 -191,427 -12,33 -41,101 -65,150 -23,50 -63,142 -90,205 -26,63 -72,169 -103,235 -30,66 -64,141 -76,168 -37,80 -37,102 -5,132 31,27 58,28 117,1 z m 3237,-86 c 58,-21 128,-48 155,-60 28,-12 138,-55 245,-95 107,-41 196,-78 198,-83 2,-6 -13,-42 -33,-82 -35,-70 -154,-344 -221,-510 -19,-47 -41,-99 -49,-115 -7,-17 -22,-51 -33,-76 l -20,-46 -62,-6 c -50,-4 -70,-12 -101,-36 l -39,-32 -57,20 c -32,10 -105,40 -163,65 -58,25 -109,46 -115,46 -5,0 -39,14 -75,31 -36,17 -144,60 -240,95 -96,36 -189,71 -207,79 l -32,14 25,58 c 33,76 62,141 79,178 8,17 23,53 35,80 12,28 25,59 30,70 5,11 18,43 30,70 12,28 27,64 35,80 12,26 37,83 65,150 60,140 56,135 102,135 48,0 114,27 141,57 18,21 18,21 110,-14 51,-20 139,-52 197,-73 z m 3740,80 c 36,-33 100,-55 137,-45 22,5 27,-1 64,-82 62,-137 86,-192 115,-268 15,-38 44,-105 66,-149 22,-43 52,-113 68,-156 16,-44 41,-102 55,-131 15,-28 23,-55 18,-59 -4,-4 -91,-38 -193,-76 -102,-37 -216,-83 -255,-101 -38,-18 -74,-33 -80,-33 -6,0 -56,-20 -111,-44 -56,-24 -129,-54 -162,-65 l -61,-22 -46,35 c -39,30 -63,39 -133,49 -7,1 -31,43 -53,92 -61,136 -129,294 -129,300 0,3 -27,63 -59,133 -86,185 -142,314 -139,317 10,7 73,35 80,35 5,0 28,8 51,18 23,10 60,26 82,34 22,9 74,30 115,46 41,17 118,47 170,67 52,20 104,41 115,45 11,5 45,19 75,31 30,11 75,29 100,40 61,25 73,24 110,-11 z m 3044,1 27,-28 -31,-69 c -32,-70 -96,-219 -152,-354 -17,-41 -50,-118 -73,-170 -103,-229 -155,-348 -155,-355 0,-4 -22,-57 -49,-119 -27,-61 -81,-187 -121,-281 -40,-93 -96,-222 -125,-285 -29,-63 -77,-171 -105,-240 -115,-277 -137,-318 -287,-538 -82,-119 -152,-222 -156,-228 -3,-6 0,-30 7,-55 10,-32 19,-45 35,-47 11,-2 21,-5 21,-6 0,-4 -27,-73 -40,-101 -10,-22 -39,-91 -61,-143 -8,-19 -30,-66 -49,-105 l -35,-72 -48,-3 -47,-3 -36,78 c -39,85 -78,174 -129,298 -18,44 -49,114 -69,155 -19,41 -48,109 -65,150 -16,41 -48,116 -71,165 -23,50 -45,99 -50,110 -5,11 -22,49 -38,85 -38,84 -255,589 -322,750 -29,69 -88,205 -131,304 -43,98 -79,182 -79,186 0,5 19,15 43,23 23,9 92,37 152,62 61,26 151,62 200,80 50,18 214,83 365,144 151,62 300,121 330,131 30,10 105,39 165,65 61,26 148,61 195,79 496,192 634,247 785,312 150,64 161,65 199,25 z M 8530,6560 c 52,-20 136,-54 185,-74 l 90,-37 82,-187 c 45,-103 84,-193 85,-200 2,-8 -17,-21 -47,-33 -27,-11 -81,-33 -120,-48 -38,-16 -113,-46 -165,-66 -52,-20 -104,-41 -115,-45 -11,-5 -44,-18 -72,-29 -29,-12 -77,-30 -105,-42 -29,-11 -62,-24 -73,-29 -81,-35 -159,-60 -174,-55 -10,3 -28,16 -40,29 l -22,23 44,99 c 24,55 50,115 57,134 23,59 196,461 231,537 25,53 38,71 49,66 8,-3 58,-22 110,-43 z m 2004,34 c 9,-8 16,-21 16,-29 0,-7 6,-26 14,-42 19,-40 41,-89 96,-218 12,-27 25,-59 31,-70 5,-11 52,-117 103,-235 l 94,-215 -27,-28 c -27,-27 -29,-28 -62,-14 -83,35 -151,62 -249,97 -58,21 -136,52 -175,68 -38,16 -146,58 -240,92 -93,35 -172,65 -174,66 -6,5 29,98 92,241 57,129 65,143 97,157 19,8 100,40 180,72 80,31 149,60 155,65 14,13 32,11 49,-7 z M 9085,6342 c 22,-8 58,-23 80,-32 77,-32 120,-49 168,-66 27,-10 44,-21 39,-26 -9,-9 -219,-99 -290,-125 -27,-9 -47,-12 -53,-6 -21,21 -146,318 -137,324 6,4 43,-7 82,-23 39,-17 89,-37 111,-46 z m 940,36 c -7,-18 -29,-67 -48,-109 -19,-41 -42,-99 -52,-128 -13,-40 -21,-52 -34,-48 -26,9 -190,72 -264,103 -37,15 -64,31 -60,34 5,4 44,21 88,38 309,121 361,141 372,141 9,1 9,-7 -2,-31 z m -356,-266 c 107,-44 197,-85 199,-91 2,-7 -1,-23 -7,-34 -15,-31 -104,-231 -157,-357 -141,-331 -179,-416 -187,-427 -5,-7 -31,-13 -57,-13 h -47 l -43,98 c -24,53 -53,120 -66,149 -13,28 -24,54 -24,57 0,3 -16,41 -36,83 -19,43 -39,87 -44,98 -30,68 -41,96 -59,142 -12,29 -34,79 -50,110 -45,91 -46,100 -15,107 27,7 153,59 294,122 41,18 82,33 90,33 8,1 103,-34 209,-77 z M 6935,5990 c 6,-3 37,-16 70,-29 33,-12 92,-36 130,-51 39,-16 113,-45 165,-65 52,-20 104,-40 115,-45 11,-5 45,-19 75,-30 30,-12 86,-35 124,-51 38,-16 74,-29 81,-29 7,0 24,-9 39,-21 19,-15 26,-30 26,-54 0,-95 84,-175 183,-175 h 44 l 28,-62 c 15,-35 49,-110 75,-168 27,-58 52,-116 55,-130 4,-14 23,-55 41,-92 19,-37 47,-100 63,-140 16,-40 46,-108 66,-151 20,-43 35,-84 32,-91 -3,-7 -59,-33 -124,-56 -65,-24 -158,-59 -208,-78 -49,-19 -119,-45 -154,-58 -35,-14 -66,-22 -69,-20 -2,3 -31,97 -63,210 -66,232 -90,288 -161,362 -68,72 -135,98 -235,92 -148,-10 -281,-110 -365,-275 -26,-50 -98,-244 -169,-451 l -124,-364 -35,-15 c -19,-9 -75,-30 -125,-49 -269,-98 -370,-137 -473,-180 -33,-14 -34,-14 -76,29 l -42,44 17,39 c 9,21 38,86 64,144 25,58 51,119 57,135 11,33 99,240 161,380 21,50 52,122 67,160 75,189 580,1339 591,1346 12,7 33,3 54,-11 z m 3135,-35 c 205,-83 253,-103 350,-140 52,-20 104,-41 115,-45 24,-11 97,-39 180,-71 79,-30 85,-36 85,-76 0,-43 19,-89 54,-131 l 28,-32 -51,-108 c -28,-59 -51,-112 -51,-117 0,-5 -19,-50 -41,-100 -102,-223 -129,-285 -155,-355 -15,-41 -35,-92 -46,-113 -18,-36 -19,-37 -46,-23 -15,8 -92,38 -172,66 -80,29 -190,72 -245,96 -55,24 -104,44 -110,44 -5,0 -35,12 -65,26 -30,15 -100,44 -155,65 -78,30 -99,42 -97,55 7,34 -21,104 -53,136 l -33,31 18,41 c 10,23 39,88 65,146 25,58 55,128 65,155 10,28 36,91 58,140 22,50 61,137 87,195 26,58 54,120 62,138 8,19 19,32 26,29 7,-3 64,-26 127,-52 z m -964,-196 c 20,-52 55,-132 76,-179 22,-47 52,-119 68,-160 15,-41 47,-116 71,-167 l 43,-92 -26,-20 c -14,-11 -31,-34 -38,-50 -8,-21 -23,-34 -49,-42 -72,-23 -117,-53 -196,-128 -57,-54 -96,-83 -135,-99 -30,-11 -131,-51 -225,-87 -93,-36 -179,-70 -190,-75 -11,-5 -36,-16 -56,-24 l -37,-14 -55,116 c -30,65 -58,128 -62,142 -4,14 -27,63 -50,110 -23,47 -48,103 -55,125 -7,22 -27,69 -45,105 -18,36 -49,104 -70,153 l -37,87 35,39 c 36,40 60,97 55,128 -2,14 27,30 152,81 85,35 164,66 175,69 11,3 54,20 95,39 70,31 207,87 375,153 l 70,27 37,-71 c 20,-40 53,-115 74,-166 z m 3021,59 c 45,-101 104,-239 133,-308 29,-69 65,-154 80,-190 15,-36 49,-117 76,-180 26,-63 99,-230 162,-370 63,-140 138,-311 167,-380 29,-69 73,-170 98,-225 24,-55 63,-143 85,-195 22,-52 56,-130 76,-173 l 36,-77 -29,-32 -28,-32 -57,18 c -31,10 -106,40 -165,66 -60,26 -120,50 -133,53 -22,6 -42,55 -202,484 -98,263 -194,508 -213,544 -48,93 -121,172 -191,206 -51,25 -67,28 -162,28 -98,0 -110,-2 -173,-32 -75,-36 -178,-127 -251,-223 -24,-30 -91,-131 -151,-225 -59,-93 -114,-176 -120,-183 -10,-11 -23,-8 -71,14 -32,14 -90,36 -129,49 -38,13 -124,46 -190,75 -66,28 -133,56 -150,62 -16,6 -34,14 -39,19 -9,8 18,77 95,247 16,34 29,65 29,68 0,6 37,92 49,115 5,8 41,92 81,185 93,220 90,214 147,214 93,0 174,76 178,167 1,37 6,48 26,59 13,7 30,13 37,14 7,0 61,21 120,46 59,26 134,57 167,69 33,13 93,37 134,55 65,28 376,146 392,149 3,1 42,-81 86,-181 z M 9682,4906 c 69,-30 106,-45 198,-81 52,-20 109,-42 125,-50 31,-13 161,-65 280,-110 158,-60 181,-70 197,-80 16,-11 14,-19 -27,-106 -24,-52 -64,-141 -88,-199 -46,-107 -117,-270 -202,-460 -25,-58 -61,-144 -80,-191 -18,-47 -49,-118 -69,-157 -20,-39 -36,-77 -36,-85 0,-7 -16,-46 -36,-87 -20,-41 -49,-109 -65,-150 -37,-95 -58,-133 -59,-107 -2,113 -134,1657 -146,1702 -8,33 -25,83 -39,112 -30,67 -20,78 47,49 z m -903,-443 c -87,-163 -160,-298 -162,-299 -2,-2 -16,27 -32,64 -16,37 -57,128 -91,202 -35,74 -60,138 -56,142 4,4 39,18 77,31 69,24 216,80 345,130 36,15 68,26 71,27 4,0 -65,-133 -152,-297 z m -353,-23 c 25,-58 53,-123 64,-145 10,-22 28,-62 40,-90 12,-27 27,-63 35,-79 7,-16 11,-36 8,-44 -3,-8 -62,-118 -131,-246 -69,-127 -172,-321 -228,-431 -57,-110 -104,-193 -104,-184 0,21 -82,324 -201,746 -54,194 -99,357 -99,361 0,9 26,20 260,107 69,25 163,61 210,79 47,19 89,33 93,32 5,-1 29,-49 53,-106 z m 2291,54 c 76,-31 174,-70 218,-86 44,-16 94,-35 110,-42 17,-8 40,-17 53,-21 12,-3 22,-11 22,-17 0,-5 -280,-446 -622,-979 l -623,-969 -21,262 c -23,284 -25,263 28,378 11,25 128,293 259,596 130,302 249,575 263,606 14,31 26,59 26,62 0,6 37,88 91,204 16,34 36,62 43,62 8,0 77,-25 153,-56 z m 1121,-929 c 66,-182 129,-353 141,-382 l 20,-52 -47,-17 c -26,-9 -139,-53 -252,-98 l -205,-81 -118,-3 -118,-4 -33,-50 c -29,-43 -45,-55 -113,-84 -97,-43 -146,-57 -136,-41 5,10 501,785 687,1076 26,40 49,71 51,70 2,-2 57,-153 123,-334 z m -5198,301 c 0,-3 -131,-388 -155,-453 -3,-9 -27,-2 -82,23 -65,31 -160,71 -366,157 -22,9 -27,17 -25,37 3,22 8,25 48,28 25,2 49,7 54,13 6,5 16,9 24,9 7,0 32,8 55,18 44,19 97,40 170,68 23,9 51,20 62,25 137,59 215,86 215,75 z m 6250,-236 c 19,-6 41,-14 48,-18 13,-9 20,-77 9,-89 -15,-15 -201,-83 -208,-76 -6,7 -109,278 -109,287 0,2 51,-18 113,-45 61,-27 128,-54 147,-59 z M 7359,3343 c 48,-189 83,-343 79,-343 -4,0 -60,23 -125,51 -65,28 -140,60 -168,71 -27,11 -51,21 -53,22 -1,2 32,111 73,242 42,131 81,259 87,284 6,24 14,38 16,30 3,-8 44,-169 91,-357 z m 1736,22 c 8,-132 17,-262 20,-290 5,-50 5,-50 -10,-20 -8,17 -37,82 -65,145 -28,63 -63,140 -76,170 l -25,55 68,140 68,140 2,-50 c 2,-27 10,-158 18,-290 z m -165,-47 c 12,-32 47,-111 148,-335 l 51,-111 21,-307 c 12,-169 20,-309 17,-311 -2,-3 -58,20 -123,49 -66,30 -137,60 -159,67 -22,7 -67,26 -100,43 -33,17 -112,52 -175,77 -63,26 -115,52 -115,58 0,17 409,810 416,806 4,-2 12,-18 19,-36 z m 3113,-310 c 14,-40 25,-74 23,-75 -2,-2 -99,-2 -217,-1 l -214,3 145,56 c 80,31 163,63 185,72 22,8 43,15 46,16 4,1 18,-32 32,-71 z"
             id="path12012" />
        </g>
      </g>
    </g>
  </g>
</svg>
