<?xml version="1.0" encoding="UTF-8" standalone="no"?>
<!-- Created with Inkscape (http://www.inkscape.org/) -->

<svg
   width="100"
   height="100"
   viewBox="0 0 26.458333 26.458333"
   version="1.1"
   id="svg1"
   xml:space="preserve"
   inkscape:version="1.3.2 (091e20ef0f, 2023-11-25)"
   sodipodi:docname="EventEX.svg"
   inkscape:export-filename="EventEX.png"
   inkscape:export-xdpi="384"
   inkscape:export-ydpi="384"
   xmlns:inkscape="http://www.inkscape.org/namespaces/inkscape"
   xmlns:sodipodi="http://sodipodi.sourceforge.net/DTD/sodipodi-0.dtd"
   xmlns="http://www.w3.org/2000/svg"
   xmlns:svg="http://www.w3.org/2000/svg"><sodipodi:namedview
     id="namedview1"
     pagecolor="#ffffff"
     bordercolor="#cccccc"
     borderopacity="1"
     inkscape:showpageshadow="0"
     inkscape:pageopacity="1"
     inkscape:pagecheckerboard="0"
     inkscape:deskcolor="#d1d1d1"
     inkscape:document-units="mm"
     inkscape:zoom="4.5622576"
     inkscape:cx="42.741997"
     inkscape:cy="30.686562"
     inkscape:window-width="1920"
     inkscape:window-height="1001"
     inkscape:window-x="0"
     inkscape:window-y="32"
     inkscape:window-maximized="1"
     inkscape:current-layer="layer1" /><defs
     id="defs1"><clipPath
       clipPathUnits="userSpaceOnUse"
       id="clipPath16"><path
         d="m 0,-595.27979 c 0,0 841.88965,0 841.88965,0 0,0 0,595.27979 0,595.27979 C 841.88965,0 0,0 0,0 Z"
         id="path18" /></clipPath><clipPath
       clipPathUnits="userSpaceOnUse"
       id="clipPath114"><path
         d="m 172.9458,-280.09766 c 2.71631,6.67774 9.19141,11.42676 16.8042,11.60059 0,0 0,0 0,0 0,0 0,-11.60059 0,-11.60059 z"
         id="path116" /></clipPath><clipPath
       clipPathUnits="userSpaceOnUse"
       id="clipPath130"><path
         d="m 190.67285,-290.37695 c 0,0 0,9.28125 0,9.28125 0,0 17.19727,0 17.19727,0 0.47412,-1.39356 0.79004,-2.85743 0.92285,-4.37207 0,0 0,0 0,0 0,0 0,-4.90918 0,-4.90918 0,0 -18.12012,0 -18.12012,0 z"
         id="path132" /></clipPath><clipPath
       clipPathUnits="userSpaceOnUse"
       id="clipPath168"><path
         d="m 0,-595.27979 c 0,0 841.88965,0 841.88965,0 0,0 0,595.27979 0,595.27979 C 841.88965,0 0,0 0,0 Z"
         id="path170" /></clipPath><clipPath
       clipPathUnits="userSpaceOnUse"
       id="clipPath16-3"><path
         d="m 0,-595.27979 c 0,0 841.88965,0 841.88965,0 0,0 0,595.27979 0,595.27979 C 841.88965,0 0,0 0,0 Z"
         id="path18-6" /></clipPath><clipPath
       clipPathUnits="userSpaceOnUse"
       id="clipPath114-7"><path
         d="m 172.9458,-280.09766 c 2.71631,6.67774 9.19141,11.42676 16.8042,11.60059 0,0 0,0 0,0 0,0 0,-11.60059 0,-11.60059 z"
         id="path116-5" /></clipPath><clipPath
       clipPathUnits="userSpaceOnUse"
       id="clipPath130-3"><path
         d="m 190.67285,-290.37695 c 0,0 0,9.28125 0,9.28125 0,0 17.19727,0 17.19727,0 0.47412,-1.39356 0.79004,-2.85743 0.92285,-4.37207 0,0 0,0 0,0 0,0 0,-4.90918 0,-4.90918 0,0 -18.12012,0 -18.12012,0 z"
         id="path132-5" /></clipPath><clipPath
       clipPathUnits="userSpaceOnUse"
       id="clipPath168-6"><path
         d="m 0,-595.27979 c 0,0 841.88965,0 841.88965,0 0,0 0,595.27979 0,595.27979 C 841.88965,0 0,0 0,0 Z"
         id="path170-2" /></clipPath><clipPath
       clipPathUnits="userSpaceOnUse"
       id="clipPath16-3-3"><path
         d="m 0,-595.27979 c 0,0 841.88965,0 841.88965,0 0,0 0,595.27979 0,595.27979 C 841.88965,0 0,0 0,0 Z"
         id="path18-6-6" /></clipPath><clipPath
       clipPathUnits="userSpaceOnUse"
       id="clipPath114-7-7"><path
         d="m 172.9458,-280.09766 c 2.71631,6.67774 9.19141,11.42676 16.8042,11.60059 0,0 0,0 0,0 0,0 0,-11.60059 0,-11.60059 z"
         id="path116-5-5" /></clipPath><clipPath
       clipPathUnits="userSpaceOnUse"
       id="clipPath130-3-3"><path
         d="m 190.67285,-290.37695 c 0,0 0,9.28125 0,9.28125 0,0 17.19727,0 17.19727,0 0.47412,-1.39356 0.79004,-2.85743 0.92285,-4.37207 0,0 0,0 0,0 0,0 0,-4.90918 0,-4.90918 0,0 -18.12012,0 -18.12012,0 z"
         id="path132-5-5" /></clipPath><clipPath
       clipPathUnits="userSpaceOnUse"
       id="clipPath168-6-6"><path
         d="m 0,-595.27979 c 0,0 841.88965,0 841.88965,0 0,0 0,595.27979 0,595.27979 C 841.88965,0 0,0 0,0 Z"
         id="path170-2-2" /></clipPath><clipPath
       clipPathUnits="userSpaceOnUse"
       id="clipPath20"><path
         d="m 0,-595.27979 c 0,0 841.88965,0 841.88965,0 0,0 0,595.27979 0,595.27979 C 841.88965,0 0,0 0,0 Z"
         id="path22-4" /></clipPath></defs><g
     inkscape:label="Capa 1"
     inkscape:groupmode="layer"
     id="layer1"
     transform="translate(0,-270.54166)"><circle
       style="fill:#4ec3e0;fill-opacity:1;stroke:none;stroke-width:28.1982"
       id="Circulo"
       cx="13.229167"
       cy="283.77084"
       r="13.229167"
       sodipodi:insensitive="true" /><g
       id="g2"
       transform="matrix(0.045,0,0,0.045,1.3229166,273.22801)"
       style="fill:#ffffff;fill-opacity:1"><path
         style="fill:#ffffff;fill-opacity:1;stroke-width:0.746469"
         d="m 214.04061,289.96128 v -7.03845 h 0.76706 0.76706 v 1.00613 1.00617 l 0.25671,-0.3518 c 0.88737,-1.21759 2.00505,-1.75141 3.6626,-1.74945 1.54168,0.002 2.53163,0.38467 3.48026,1.34501 1.01995,1.03287 1.44008,2.17946 1.44243,3.93628 0.002,1.64627 -0.41043,2.7987 -1.35465,3.78186 -0.95783,0.99749 -1.98624,1.40944 -3.51678,1.4087 -1.70375,-9.3e-4 -2.81891,-0.52828 -3.71386,-1.75612 l -0.25671,-0.3518 v 2.90106 2.9011 h -0.76706 -0.76706 z m 6.35873,1.74303 c 0.87482,-0.3042 1.56213,-0.9024 1.97586,-1.71874 0.31995,-0.63132 0.43231,-1.13428 0.43231,-1.93031 0,-1.22535 -0.37692,-2.15488 -1.17751,-2.90366 -1.02644,-0.9602 -2.38149,-1.2093 -3.75462,-0.69058 -0.75301,0.28408 -1.65148,1.18099 -1.92849,1.92363 -0.76784,2.05856 -0.0466,4.27767 1.6624,5.11933 0.87465,0.43079 1.91312,0.50487 2.78975,0.19969 z m -184.307974,1.57944 c -1.227763,-0.11236 -2.147459,-0.60786 -2.946823,-1.58881 l -0.388593,-0.47691 v 0.99591 0.99602 h -0.76706 -0.767055 v -7.26405 -7.26404 h 0.767055 0.76706 v 3.12665 3.12676 l 0.256707,-0.3518 c 0.887381,-1.21764 2.005044,-1.75146 3.66261,-1.7495 1.54169,0.002 2.531607,0.38467 3.480329,1.34506 1.019886,1.03281 1.440097,2.17941 1.442437,3.93627 0.0023,1.62626 -0.410476,2.79307 -1.32656,3.75395 -1.089489,1.14248 -2.378898,1.57891 -4.179734,1.41474 z m 1.489093,-1.57944 c 0.874821,-0.3042 1.56214,-0.9024 1.97586,-1.71874 0.319951,-0.63132 0.43231,-1.13428 0.43231,-1.93031 0,-1.22535 -0.376916,-2.15488 -1.177433,-2.90366 -1.026514,-0.9602 -2.381552,-1.2093 -3.75469,-0.69058 -0.753012,0.28408 -1.651478,1.18099 -1.928493,1.92363 -0.767839,2.05856 -0.04661,4.27767 1.662405,5.11933 0.874663,0.43079 1.91312,0.50487 2.789737,0.19969 z m 70.793371,1.45286 c -1.77142,-0.46759 -3.10757,-1.81697 -3.56235,-3.59837 -0.0804,-0.31549 -0.13733,-0.93365 -0.13733,-1.49255 0,-1.65093 0.43153,-2.79223 1.43658,-3.79703 1.00483,-1.00475 2.14613,-1.43662 3.79714,-1.43662 1.65093,0 2.79224,0.43177 3.79706,1.43662 0.64533,0.6453 1.06632,1.39177 1.29932,2.30458 0.18105,0.70776 0.17948,2.2845 -0.002,2.98186 -0.46896,1.80122 -1.81925,3.1534 -3.60191,3.60739 -0.68512,0.17418 -2.3551,0.17173 -3.02649,-0.004 z m 2.27402,-1.31062 c 1.23775,-0.25907 2.24858,-1.1258 2.65482,-2.27725 0.68123,-1.93158 -0.0866,-4.13906 -1.71437,-4.92954 -1.08325,-0.52593 -2.27762,-0.52593 -3.36086,0 -2.11601,1.02722 -2.64554,4.3207 -0.98337,6.11598 0.88692,0.95809 2.13115,1.35674 3.40378,1.09081 z m 15.16102,1.27131 c -0.74678,-0.19576 -1.79311,-0.71477 -2.1008,-1.04238 l -0.20676,-0.22079 0.2622,-0.54776 c 0.14435,-0.30126 0.29106,-0.56576 0.32697,-0.58838 0.0392,-0.0245 0.27938,0.12168 0.54155,0.3199 1.13279,0.85741 3.0442,1.20753 4.13603,0.75771 0.88599,-0.36505 1.22558,-1.25783 0.75301,-1.97933 -0.25283,-0.38565 -0.78344,-0.65545 -2.22727,-1.13202 -1.52234,-0.50252 -2.0745,-0.77017 -2.55456,-1.23594 -0.50018,-0.48624 -0.65937,-0.92429 -0.66171,-1.82394 -0.002,-0.65158 0.0314,-0.84494 0.231,-1.23869 0.52047,-1.04478 1.62455,-1.55192 3.37685,-1.55143 1.04431,0 1.78375,0.14131 2.57695,0.49237 0.80997,0.35817 0.80038,0.3356 0.44398,1.04336 l -0.31136,0.61881 -0.56496,-0.26397 c -0.87693,-0.40871 -1.62206,-0.56651 -2.45709,-0.52127 -1.16767,0.0623 -1.78046,0.50797 -1.78046,1.28918 0,0.76551 0.48613,1.12545 2.33348,1.72723 2.08511,0.67891 2.74651,1.09248 3.15712,1.97245 0.25126,0.53918 0.29027,1.60545 0.0804,2.2009 -0.29106,0.82473 -1.03978,1.44266 -2.10696,1.73857 -0.81763,0.22717 -2.34878,0.21932 -3.24614,-0.0147 z m 42.05655,0.0545 c -0.85453,-0.26692 -1.52061,-0.81855 -1.94277,-1.60864 -0.17555,-0.32923 -0.20367,-0.51582 -0.20367,-1.37352 0,-0.91697 0.0157,-1.02433 0.24503,-1.4089 0.29885,-0.50875 0.78954,-0.95112 1.30939,-1.18099 0.77174,-0.34198 1.51165,-0.42981 3.61189,-0.43128 l 2.00778,-0.002 v -0.40184 c 0,-1.09949 -0.40341,-1.86755 -1.19476,-2.27543 -0.39561,-0.20362 -0.62114,-0.25121 -1.35667,-0.2831 -1.05781,-0.0491 -1.75722,0.1413 -2.79279,0.75064 -0.37299,0.21932 -0.69526,0.35425 -0.74677,0.31205 -0.0466,-0.0392 -0.21147,-0.2988 -0.36053,-0.5743 -0.26686,-0.49472 -0.26764,-0.50179 -0.0905,-0.63677 0.40341,-0.30665 1.84547,-0.94955 2.4517,-1.09213 0.49941,-0.11776 0.92243,-0.14278 1.84984,-0.11089 1.56635,0.0545 2.0521,0.22766 2.84148,1.01653 0.88988,0.88915 0.90673,0.98512 0.97571,5.57312 l 0.0546,3.76745 h -0.81707 -0.81701 v -0.68048 -0.68044 l -0.36675,0.35278 c -0.44012,0.42294 -1.10916,0.77174 -1.84033,0.95971 -0.66015,0.16927 -2.28705,0.17418 -2.82025,0.01 z m 3.26778,-1.52381 c 0.67263,-0.3096 1.2635,-0.86791 1.54371,-1.45835 0.16466,-0.34738 0.21461,-0.60478 0.21535,-1.11765 l 9.3e-4,-0.6664 -2.05288,0.0491 c -2.12615,0.0545 -2.50148,0.10794 -3.00269,0.44943 -0.50643,0.34394 -0.67186,0.6453 -0.67186,1.2222 0,0.58839 0.23487,1.05873 0.69215,1.38432 0.50253,0.35719 0.87435,0.44158 1.83135,0.41263 0.75925,-0.0245 0.98804,-0.0702 1.44375,-0.27623 z m 14.68291,1.47263 c -0.74677,-0.19577 -1.79312,-0.71477 -2.10088,-1.04243 l -0.2068,-0.21981 0.26141,-0.54781 c 0.14435,-0.30126 0.29106,-0.56572 0.32697,-0.58833 0.0393,-0.0245 0.27938,0.12168 0.54155,0.3199 1.1328,0.85741 3.04421,1.20758 4.13604,0.75771 0.88597,-0.36505 1.22558,-1.25783 0.75301,-1.97933 -0.25283,-0.38565 -0.78337,-0.65545 -2.22728,-1.13197 -1.52234,-0.50257 -2.0745,-0.76944 -2.55448,-1.23599 -0.50018,-0.48624 -0.65937,-0.92429 -0.66171,-1.82399 -0.002,-0.65079 0.0314,-0.84485 0.23099,-1.23864 0.52048,-1.04474 1.62449,-1.55187 3.37678,-1.55143 1.04439,0 1.78375,0.14131 2.57703,0.49242 0.80998,0.35817 0.8003,0.3356 0.44399,1.04336 l -0.31137,0.6188 -0.56496,-0.26396 c -0.877,-0.40871 -1.62214,-0.56651 -2.45716,-0.52127 -1.1676,0.0623 -1.78047,0.50802 -1.78047,1.28913 0,0.76546 0.48613,1.1255 2.33348,1.72733 2.08519,0.67964 2.74651,1.09243 3.1572,1.9724 0.25126,0.53923 0.29027,1.60545 0.0804,2.2009 -0.29105,0.82473 -1.03987,1.44261 -2.10704,1.73857 -0.81762,0.22717 -2.34878,0.21932 -3.24608,-0.0147 z m 50.5884,0.01 c -0.99656,-0.31893 -1.61161,-0.87439 -2.09339,-1.89121 l -0.28325,-0.59775 -0.0236,-3.85758 -0.0236,-3.85757 h 0.76472 0.76471 l 0.0393,3.31614 c 0.0393,3.90281 0.0546,3.99344 0.8313,4.76733 0.60396,0.60399 1.19075,0.80104 2.20753,0.73976 0.90565,-0.0545 1.55901,-0.36259 2.16156,-1.02252 0.86064,-0.94165 0.9975,-1.6658 1.00157,-5.29708 l 0.002,-2.50407 h 0.76706 0.76705 v 5.14351 5.14342 h -0.76705 -0.76706 l -0.004,-1.0603 -0.004,-1.06024 -0.18581,0.3518 c -0.42136,0.79921 -1.43424,1.53308 -2.43353,1.76344 -0.65235,0.15063 -2.13113,0.10843 -2.71178,-0.078 z m 20.27277,0.0392 c -1.81089,-0.49085 -3.09812,-1.80333 -3.51872,-3.58708 -0.17487,-0.74289 -0.17404,-2.31655 0.001,-3.00498 0.45807,-1.79395 1.78686,-3.14834 3.53025,-3.59812 0.33242,-0.0859 0.92962,-0.14278 1.49253,-0.14278 1.54637,0 2.52037,0.35671 3.41472,1.25121 0.87777,0.87786 1.31368,2.07362 1.3694,3.75694 l 0.0236,0.81207 -4.20875,0.0245 -4.20877,0.0245 0.0851,0.38319 c 0.24346,1.09528 0.97768,2.04321 1.95418,2.52399 0.51345,0.2522 0.70151,0.29488 1.46341,0.32481 1.26117,0.0545 2.20707,-0.24974 2.97639,-0.94449 0.19508,-0.17664 0.38781,-0.30666 0.4276,-0.28949 0.13336,0.0545 0.83371,0.86109 0.83371,0.95824 0,0.14817 -1.07459,0.92448 -1.61223,1.1645 -0.26608,0.11874 -0.7335,0.27477 -1.03768,0.3464 -0.6937,0.16388 -2.38521,0.1629 -2.9899,-9.3e-4 z m 4.79829,-6.12462 c -0.15754,-1.14698 -0.77486,-2.0305 -1.75611,-2.51334 -0.5712,-0.28114 -0.65547,-0.29635 -1.59694,-0.29635 -0.88543,0 -1.04946,0.0245 -1.5012,0.23796 -1.06684,0.50017 -1.76212,1.42769 -2.00324,2.67232 l -0.0546,0.2934 h 3.48406 3.48415 z m 27.49306,6.11682 c -0.47912,-0.17615 -0.99641,-0.67965 -1.23972,-1.20528 -0.18252,-0.39399 -0.19204,-0.56886 -0.21691,-3.95418 l -0.0236,-3.5417 h -0.76315 -0.76316 v -0.6321 -0.63127 h 0.76706 0.76706 v -1.35355 -1.35355 h 0.76706 0.76705 v 1.35355 1.35355 h 1.62425 1.62423 v 0.63127 0.6321 h -1.6239 -1.62434 l 0.004,3.0455 c 0.004,3.37826 0.0546,3.7438 0.56729,4.12091 0.38394,0.28261 1.2107,0.25415 1.90182,-0.0623 0.29262,-0.13591 0.54155,-0.23552 0.55169,-0.22227 0.0624,0.0702 0.40498,1.08733 0.40498,1.18698 0,0.0623 -0.29419,0.25514 -0.65391,0.42196 -0.58525,0.27132 -0.74911,0.30567 -1.5566,0.32677 -0.63518,0.0147 -1.01308,-0.0147 -1.27652,-0.11383 z m 14.2513,0.0147 c -0.85446,-0.26692 -1.52063,-0.81855 -1.94278,-1.60855 -0.1755,-0.32922 -0.20357,-0.51581 -0.20357,-1.37371 0,-0.91697 0.0162,-1.02423 0.24503,-1.40885 0.29886,-0.5088 0.78961,-0.95107 1.3094,-1.18104 0.77175,-0.34198 1.51165,-0.42981 3.61197,-0.43177 l 2.00778,-0.002 v -0.40184 c 0,-1.09959 -0.40341,-1.86765 -1.19483,-2.27543 -0.39561,-0.20362 -0.62114,-0.25121 -1.35668,-0.2831 -1.05781,-0.0491 -1.75715,0.14131 -2.79272,0.75069 -0.37299,0.21932 -0.69527,0.35425 -0.74677,0.31303 -0.0466,-0.0393 -0.21147,-0.2988 -0.36053,-0.57435 -0.26686,-0.49472 -0.26765,-0.50174 -0.0904,-0.63671 0.40341,-0.30666 1.84546,-0.9496 2.45162,-1.09219 0.50019,-0.11775 0.92249,-0.14277 1.84983,-0.11088 1.56636,0.0545 2.0521,0.22766 2.84157,1.01652 0.88986,0.8892 0.90665,0.98508 0.97563,5.57318 l 0.0546,3.76734 h -0.81724 -0.81701 v -0.68048 -0.68043 l -0.36676,0.35278 c -0.44011,0.42293 -1.10914,0.77174 -1.84031,0.9597 -0.66016,0.16928 -2.28705,0.17418 -2.82026,0.01 z m 3.26784,-1.52376 c 0.67264,-0.3096 1.26351,-0.86796 1.54371,-1.4585 0.16456,-0.34738 0.21461,-0.60473 0.21535,-1.11755 l 8.7e-4,-0.6664 -2.0528,0.0491 c -2.12616,0.0545 -2.50151,0.10795 -3.00271,0.44944 -0.50643,0.34394 -0.67186,0.6453 -0.67186,1.2222 0,0.58834 0.23488,1.05872 0.69215,1.38432 0.50253,0.35719 0.87429,0.44158 1.83128,0.41263 0.75926,-0.0245 0.98803,-0.0702 1.44375,-0.27623 z m 14.68284,1.47258 c -0.74678,-0.19577 -1.7931,-0.71478 -2.10088,-1.04243 l -0.2068,-0.21981 0.2622,-0.54781 c 0.1443,-0.30126 0.29105,-0.56572 0.32697,-0.58834 0.0392,-0.0245 0.27937,0.12169 0.54154,0.31991 1.13279,0.85726 3.04421,1.20738 4.13604,0.7577 0.88605,-0.36504 1.22565,-1.25782 0.75301,-1.97922 -0.25283,-0.38565 -0.78335,-0.65546 -2.22728,-1.13207 -1.52226,-0.50257 -2.0745,-0.77022 -2.55446,-1.236 -0.50019,-0.48623 -0.65937,-0.92418 -0.66171,-1.82393 -0.002,-0.6508 0.0314,-0.84499 0.23099,-1.23859 0.52048,-1.04479 1.62456,-1.55197 3.37685,-1.55158 1.0443,0 1.78366,0.14131 2.57695,0.49237 0.80997,0.35817 0.8003,0.3356 0.44399,1.04346 l -0.31137,0.6188 -0.56495,-0.26397 c -0.87692,-0.40871 -1.62206,-0.5665 -2.45716,-0.52126 -1.16759,0.0623 -1.78048,0.50802 -1.78048,1.28918 0,0.76551 0.48614,1.1254 2.33349,1.72728 2.08519,0.67964 2.74651,1.09237 3.1572,1.9724 0.25126,0.53922 0.29027,1.60545 0.0803,2.20085 -0.29105,0.82478 -1.03986,1.44266 -2.10696,1.73861 -0.81762,0.22717 -2.34886,0.21932 -3.24615,-0.0147 z m 29.42337,0.0545 c -0.85441,-0.26691 -1.52059,-0.81855 -1.94273,-1.60864 -0.17551,-0.32922 -0.20357,-0.51581 -0.20357,-1.37362 0,-0.91697 0.0162,-1.02432 0.24503,-1.40884 0.29885,-0.5088 0.78961,-0.95107 1.30937,-1.18104 0.77159,-0.34198 1.51163,-0.42981 3.61193,-0.43177 l 2.0078,-0.002 v -0.40184 c 0,-1.0994 -0.40342,-1.86756 -1.19485,-2.27543 -0.39561,-0.20362 -0.62114,-0.25121 -1.35666,-0.28311 -1.05783,-0.0491 -1.75715,0.14131 -2.79271,0.75065 -0.37299,0.21932 -0.69528,0.35424 -0.74677,0.31205 -0.0466,-0.0393 -0.21147,-0.29881 -0.36053,-0.57357 -0.26687,-0.49393 -0.26765,-0.50174 -0.0904,-0.63671 0.40263,-0.30666 1.84548,-0.9496 2.45163,-1.09214 0.4994,-0.11775 0.92242,-0.14278 1.84984,-0.11088 1.56628,0.0545 2.0521,0.22766 2.84148,1.01637 0.88995,0.88925 0.90674,0.98518 0.97564,5.57318 l 0.0546,3.76739 h -0.81724 -0.81692 v -0.68043 -0.68043 l -0.36676,0.35278 c -0.44011,0.42293 -1.10923,0.77174 -1.84031,0.95965 -0.66015,0.16928 -2.28705,0.17418 -2.82026,0.01 z m 3.26785,-1.5238 c 0.67264,-0.3096 1.2635,-0.86791 1.54371,-1.45846 0.16471,-0.34737 0.21461,-0.60472 0.21461,-1.11764 l 8.7e-4,-0.6664 -2.0529,0.0491 c -2.12607,0.0545 -2.50141,0.10795 -3.00262,0.44895 -0.50635,0.34492 -0.67185,0.64535 -0.67185,1.2222 0,0.58839 0.23487,1.05877 0.69214,1.38441 0.50253,0.3572 0.87428,0.44159 1.83127,0.41264 0.75926,-0.0245 0.98804,-0.0702 1.44376,-0.27624 z m 28.68185,1.51271 c -0.47833,-0.17614 -0.99637,-0.67964 -1.2397,-1.20527 -0.18252,-0.39399 -0.19204,-0.56886 -0.21691,-3.95414 l -0.0236,-3.54174 h -0.76316 -0.76316 v -0.63205 -0.63132 h 0.76706 0.76706 v -1.35355 -1.35355 h 0.76706 0.76706 v 1.35355 1.35355 h 1.62423 1.62425 v 0.63132 0.63205 h -1.62425 -1.62423 l 0.004,3.0455 c 0.004,3.37826 0.0546,3.7437 0.5673,4.12091 0.38393,0.28261 1.21061,0.25464 1.90173,-0.0623 0.29263,-0.13591 0.54155,-0.23551 0.55169,-0.22226 0.0624,0.0702 0.4042,1.08733 0.4042,1.18698 0,0.0623 -0.29419,0.25513 -0.65391,0.42195 -0.58525,0.27133 -0.74911,0.30568 -1.55659,0.32678 -0.63519,0.0147 -1.01311,-0.0147 -1.27653,-0.11383 z m 15.02292,-0.0294 c -0.99657,-0.31893 -1.61153,-0.87434 -2.0934,-1.89121 l -0.28325,-0.59771 -0.0236,-3.85762 -0.0236,-3.85762 h 0.76472 0.76472 l 0.0392,3.31624 c 0.0392,3.90276 0.0546,3.99329 0.83127,4.76728 0.60397,0.60399 1.19077,0.80104 2.20755,0.74054 0.90564,-0.0545 1.559,-0.36357 2.16156,-1.02251 0.86063,-0.94165 0.9975,-1.6658 1.00156,-5.29709 l 0.002,-2.50407 h 0.76706 0.76706 v 5.14342 5.14351 h -0.76706 -0.76706 l -0.004,-1.06029 -0.004,-1.06024 -0.18581,0.35179 c -0.42137,0.79922 -1.43417,1.53313 -2.43352,1.76344 -0.65236,0.15063 -2.13108,0.10843 -2.71181,-0.078 z m 18.53264,-0.01 c -0.74677,-0.19577 -1.79312,-0.71477 -2.10086,-1.04238 l -0.20681,-0.21981 0.26142,-0.54781 c 0.1443,-0.30126 0.29105,-0.56572 0.32696,-0.58838 0.0393,-0.0245 0.27938,0.12168 0.54155,0.3199 1.13282,0.85736 3.04421,1.20748 4.13606,0.75771 0.88605,-0.36505 1.22566,-1.25773 0.75301,-1.97923 -0.25204,-0.38565 -0.78337,-0.65546 -2.22728,-1.13212 -1.52235,-0.50252 -2.0745,-0.77017 -2.55448,-1.23594 -0.50019,-0.48525 -0.65937,-0.92424 -0.66172,-1.82394 -0.002,-0.65079 0.0314,-0.84494 0.231,-1.23859 0.52048,-1.04479 1.62447,-1.55192 3.37679,-1.55143 1.04438,0 1.78374,0.14131 2.57701,0.49236 0.80999,0.35818 0.80031,0.33561 0.44398,1.04337 l -0.31136,0.6188 -0.56496,-0.26397 c -0.87701,-0.40871 -1.62206,-0.5665 -2.45717,-0.52121 -1.1676,0.0623 -1.78046,0.50797 -1.78046,1.28918 0,0.76546 0.48613,1.1255 2.33348,1.72723 2.08518,0.67964 2.74651,1.09247 3.1572,1.9725 0.25126,0.53922 0.29106,1.60545 0.0803,2.20085 -0.29105,0.82478 -1.03986,1.44265 -2.10702,1.73856 -0.81762,0.22717 -2.3487,0.21932 -3.24608,-0.0147 z m 43.03342,0.0392 c -1.64117,-0.44158 -2.9879,-1.85793 -3.39067,-3.56637 -0.18105,-0.76943 -0.17958,-2.37773 0.004,-3.09079 0.43766,-1.70387 1.52645,-2.89948 3.1318,-3.43836 0.56499,-0.18939 0.85251,-0.22963 1.66576,-0.22963 1.09654,0 1.66059,0.12806 2.48081,0.56184 0.48525,0.25661 1.09096,0.81733 1.44049,1.33305 0.14524,0.21392 0.15309,0.0702 0.1575,-2.91014 l 0.004,-3.13578 h 0.76708 0.76703 v 7.2641 7.26395 h -0.76703 -0.76708 v -1.00608 -1.00617 l -0.25611,0.35179 c -0.56106,0.77174 -1.44786,1.37141 -2.40614,1.62778 -0.59074,0.15848 -2.21346,0.1467 -2.83227,-0.0245 z m 2.60289,-1.30806 c 1.89866,-0.43766 3.05487,-2.24639 2.78987,-4.36456 -0.3199,-2.55815 -2.91052,-3.98328 -5.27373,-2.90135 -1.99625,0.91393 -2.69479,3.85271 -1.37823,5.79838 0.81796,1.20886 2.39093,1.80661 3.86209,1.46753 z m 17.91577,1.3165 c -1.81088,-0.49084 -3.0982,-1.80333 -3.51868,-3.58717 -0.17467,-0.74206 -0.17418,-2.31645 0.001,-3.00488 0.45827,-1.79396 1.78684,-3.14834 3.53031,-3.59812 0.33266,-0.0859 0.92959,-0.14278 1.49251,-0.14278 1.54637,0 2.52041,0.3567 3.41471,1.25125 0.87777,0.87782 1.31366,2.07358 1.36945,3.75689 l 0.0245,0.81208 -4.20883,0.0245 -4.20868,0.0245 0.0849,0.3832 c 0.24336,1.09527 0.97757,2.0432 1.95406,2.52399 0.51346,0.25219 0.70153,0.29488 1.4635,0.32481 1.26112,0.0545 2.20699,-0.24974 2.97632,-0.9446 0.19528,-0.17614 0.38811,-0.30665 0.42785,-0.28948 0.13346,0.0545 0.83371,0.86119 0.83371,0.95829 0,0.14817 -1.07462,0.92443 -1.61217,1.16445 -0.26593,0.11874 -0.73352,0.27476 -1.03777,0.3464 -0.6929,0.16388 -2.38529,0.16289 -2.98987,-9.8e-4 z m 4.79825,-6.12461 c -0.1575,-1.14699 -0.77489,-2.03055 -1.75613,-2.51335 -0.57121,-0.28114 -0.65551,-0.29635 -1.59696,-0.29635 -0.88543,0 -1.04935,0.0245 -1.50109,0.23797 -1.06692,0.50016 -1.76221,1.42768 -2.00332,2.67231 l -0.0545,0.29341 h 3.48414 3.48404 z m 12.50784,6.1279 c -0.85456,-0.26691 -1.52066,-0.81865 -1.94282,-1.60864 -0.17614,-0.32922 -0.20361,-0.51582 -0.20361,-1.37362 0,-0.91697 0.0147,-1.02432 0.24483,-1.4088 0.2988,-0.50875 0.7896,-0.95121 1.30939,-1.18108 0.77174,-0.34199 1.51164,-0.42981 3.61196,-0.43177 l 2.00768,-0.002 v -0.40184 c 0,-1.09945 -0.40331,-1.86756 -1.19473,-2.27548 -0.39546,-0.20362 -0.62116,-0.25122 -1.35669,-0.28311 -1.05784,-0.0491 -1.75721,0.14131 -2.79277,0.75064 -0.37289,0.21932 -0.6953,0.35425 -0.74681,0.31304 -0.0491,-0.0392 -0.21147,-0.29881 -0.36063,-0.57431 -0.26691,-0.49398 -0.26789,-0.50178 -0.0903,-0.63676 0.40331,-0.30665 1.84543,-0.94965 2.45167,-1.09223 0.50022,-0.11776 0.92252,-0.14278 1.84984,-0.11089 1.56635,0.0545 2.05209,0.22766 2.84154,1.01643 0.88989,0.8892 0.90667,0.98517 0.97566,5.57317 l 0.0545,3.7674 h -0.81698 -0.81708 v -0.68043 -0.68043 l -0.36651,0.35277 c -0.44011,0.42294 -1.10906,0.77174 -1.84023,0.95976 -0.66016,0.16927 -2.28705,0.17418 -2.82024,0.01 z m 3.26772,-1.52385 c 0.67268,-0.3096 1.26352,-0.86796 1.54382,-1.45841 0.16437,-0.34738 0.21442,-0.60477 0.21442,-1.11764 l 8.8e-4,-0.6664 -2.05287,0.0491 c -2.12618,0.0545 -2.50147,0.10794 -3.00272,0.44944 -0.50561,0.34492 -0.67184,0.6453 -0.67184,1.22235 0,0.58838 0.23502,1.05862 0.69215,1.38421 0.50253,0.3572 0.87429,0.44159 1.83125,0.41264 0.75928,-0.0245 0.98807,-0.0702 1.44388,-0.27624 z m 14.68284,1.47258 c -0.74676,-0.19577 -1.79307,-0.71478 -2.10076,-1.04238 l -0.20754,-0.21981 0.26152,-0.54776 c 0.14425,-0.30126 0.29095,-0.56577 0.32775,-0.58839 0.0294,-0.0245 0.27918,0.12168 0.54153,0.3199 1.1328,0.85741 3.04422,1.20754 4.13601,0.75771 0.88602,-0.36504 1.22569,-1.25782 0.75305,-1.97922 -0.25268,-0.38565 -0.78347,-0.65551 -2.2273,-1.13213 -1.52233,-0.50252 -2.07446,-0.76938 -2.55446,-1.23594 -0.50017,-0.48525 -0.65938,-0.92423 -0.66169,-1.82393 -0.002,-0.6508 0.0294,-0.84495 0.2311,-1.23869 0.52048,-1.04479 1.62458,-1.55192 3.37684,-1.55143 1.04434,0 1.7837,0.1413 2.57698,0.49236 0.80996,0.35817 0.80029,0.3356 0.44403,1.04346 l -0.31156,0.61881 -0.56493,-0.26397 c -0.87694,-0.40871 -1.62213,-0.5665 -2.45717,-0.52127 -1.16759,0.0623 -1.78046,0.50802 -1.78046,1.28918 0,0.76551 0.48623,1.1255 2.33347,1.72728 2.08511,0.67886 2.74651,1.09243 3.15713,1.97241 0.25121,0.53922 0.29095,1.60554 0.0805,2.2009 -0.29095,0.82473 -1.03978,1.4427 -2.10694,1.73856 -0.81761,0.22717 -2.34878,0.21932 -3.24608,-0.0147 z m -506.7875179,0.0245 c 0,-0.0392 1.365572,-3.12651 3.0356199,-6.86122 l 3.03648,-6.79028 h 0.875605 0.875601 l 2.986615,6.70005 c 1.642665,3.68501 3.013698,6.77114 3.046626,6.85798 0.05461,0.14376 -0.02355,0.1575 -0.841349,0.1575 h -0.901272 l -0.766279,-1.73793 -0.76628,-1.73709 h -3.675097 -3.675175 l -0.741311,1.71453 -0.7413101,1.71447 -0.8744282,0.0245 c -0.480688,0.0147 -0.8748257,-0.004 -0.8752133,-0.0491 z m 9.8434909,-5.10161 c -0.119374,-0.30764 -2.811198,-6.41145 -2.888607,-6.5505 -0.03925,-0.078 -0.302779,0.42 -0.709316,1.35355 -0.352727,0.81104 -1.026284,2.35791 -1.496354,3.43734 l -0.854689,1.96264 h 3.01385 3.013851 z m 33.470722,0.0245 v -5.14342 h 0.76706 0.76706 v 1.01393 1.01397 l 0.30587,-0.45483 c 0.642209,-0.95362 1.672237,-1.56438 2.7707,-1.64298 l 0.622701,-0.0491 v 0.7663 0.76624 l -0.518914,0.0545 c -1.122657,0.11874 -2.014803,0.65075 -2.529424,1.50786 -0.570418,0.94975 -0.591486,1.09827 -0.629722,4.35083 l -0.0314,2.95522 h -0.760038 -0.760814 z m 14.347603,0 v -5.14342 h 0.767059 0.76706 v 5.14342 5.14351 h -0.76706 -0.767059 z m 12.36238,0 v -5.14342 h 0.76706 0.76706 l 0.0039,1.0602 0.0039,1.06034 0.186496,-0.35425 c 0.265293,-0.50331 0.984618,-1.17236 1.540831,-1.43328 0.731944,-0.34346 1.367598,-0.44895 2.465983,-0.40724 0.846496,0.0294 1.067641,0.0702 1.553863,0.29488 0.682006,0.31058 1.456322,1.09782 1.695646,1.72453 l 0.160736,0.42048 0.200528,-0.3935 c 0.288746,-0.5665 0.847281,-1.16151 1.404431,-1.49534 0.739751,-0.44306 1.456867,-0.59069 2.689081,-0.55399 0.968068,0.0294 1.092688,0.0545 1.647341,0.32677 0.740531,0.36504 1.398578,1.0572 1.701892,1.7915 0.218486,0.52828 0.219271,0.54074 0.2466,4.38752 l 0.0314,3.85763 h -0.76386 -0.76394 l -0.03925,-3.36134 c -0.03925,-3.81822 -0.05461,-3.87847 -0.757694,-4.66415 -0.518919,-0.57744 -1.126013,-0.81771 -2.065766,-0.81771 -1.52225,0 -2.631949,0.83469 -3.129565,2.35398 -0.172463,0.5275 -0.192726,0.84146 -0.230948,3.53394 l -0.03925,2.95528 H 86.672012 85.9229 l -0.03925,-3.36134 c -0.0314,-3.19426 -0.04661,-3.38601 -0.232518,-3.85865 -0.223196,-0.56572 -0.695273,-1.09449 -1.231665,-1.38176 -0.309795,-0.16633 -0.513458,-0.19577 -1.314147,-0.19577 -0.854532,0 -0.997811,0.0245 -1.460924,0.25219 -0.666399,0.32776 -1.353321,1.07536 -1.605058,1.74838 -0.291052,0.77797 -0.357388,1.56418 -0.359743,4.29341 l -0.0029,2.50408 h -0.767059 -0.76706 z m 75.979022,-2.12053 v -7.26405 h 0.76705 0.76706 v 7.26405 7.26404 h -0.76706 -0.76705 z m 118.66084,2.12053 v -5.14342 h 0.76706 0.76706 v 1.01393 1.01397 l 0.30666,-0.45483 c 0.6422,-0.95362 1.67217,-1.56438 2.77062,-1.64298 l 0.6227,-0.0491 v 0.7663 0.76624 l -0.51892,0.0545 c -1.12265,0.11874 -2.01481,0.65075 -2.52944,1.50786 -0.57041,0.94975 -0.59148,1.09827 -0.62972,4.35083 l -0.0314,2.95522 h -0.76081 -0.76082 z m 171.44903,0 v -5.14342 h 0.76708 0.76703 v 5.14342 5.14351 h -0.76703 -0.76708 z M 65.865614,280.76742 c -0.229427,-0.22963 -0.263723,-0.33021 -0.263723,-0.7741 0,-0.44305 0.0314,-0.54467 0.263723,-0.77409 0.223196,-0.22325 0.334769,-0.26397 0.728823,-0.26397 0.393304,0 0.505653,0.0392 0.728824,0.26397 0.229427,0.22962 0.263772,0.3302 0.263772,0.77409 0,0.44306 -0.0314,0.54467 -0.263772,0.7741 -0.223147,0.22324 -0.334769,0.26397 -0.728824,0.26397 -0.394039,0 -0.505647,-0.0393 -0.728823,-0.26397 z m 378.451186,0 c -0.22962,-0.22963 -0.26397,-0.33021 -0.26397,-0.7741 0,-0.44305 0.0294,-0.54467 0.26397,-0.77409 0.22325,-0.22325 0.33463,-0.26397 0.72881,-0.26397 0.3935,0 0.50566,0.0392 0.72886,0.26397 0.22962,0.22962 0.26348,0.3302 0.26348,0.77409 0,0.44306 -0.0294,0.54467 -0.26348,0.7741 -0.22325,0.22324 -0.33462,0.26397 -0.72886,0.26397 -0.39399,0 -0.50561,-0.0393 -0.72881,-0.26397 z M 101.52273,259.98415 c -0.0466,-0.11236 -6.744594,-16.9252 -14.890874,-37.36276 C 78.48557,202.18388 71.782502,185.36265 71.736234,185.24102 l -0.08429,-0.22178 6.878323,0.002 6.878254,0.002 11.550221,30.44477 c 6.352698,16.74459 11.558018,30.43746 11.567468,30.42838 0.008,-0.01 5.25868,-13.69718 11.66492,-30.41823 6.40631,-16.72104 11.66079,-30.41488 11.67663,-30.43073 0.0157,-0.0147 3.01471,-0.0147 6.66429,-0.004 l 6.63557,0.0245 -15.17662,37.53821 -15.17662,37.53841 -6.60624,0.0245 -6.60623,0.0245 -0.0796,-0.20362 z m 53.774,-37.38096 v -37.5835 h 26.84537 26.8453 v 5.73003 5.72999 h -20.4837 -20.48361 v 10.15165 10.15156 h 18.36308 18.36307 v 5.6849 5.68489 h -18.36307 -18.36308 v 10.28698 10.28693 h 21.11529 21.11529 v 5.72999 5.72993 H 182.7737 155.29673 Z m 70.38441,0 v -37.5835 h 6.26474 6.26478 l 20.06169,26.90915 20.06167,26.90911 0.0236,-26.90911 0.0236,-26.90915 h 6.27123 6.27133 v 37.5835 37.58335 h -6.29559 -6.29557 l -19.94067,-26.83811 -19.94067,-26.83821 -0.0236,26.83821 -0.0236,26.83811 h -6.36152 -6.36152 z m 99.80138,5.72993 v -31.85341 h -11.86608 -11.8661 v -5.72999 -5.73003 h 30.13898 30.13893 v 5.73003 5.72999 h -11.91117 -11.91127 v 31.85341 31.85342 h -6.3616 -6.36169 z"
         id="path826-35-6"
         inkscape:connector-curvature="0"
         sodipodi:nodetypes="cccccccccccccccccccccsccccccccccccccccccccccccccccsccccccccscsccccccccccccccccccccccccccccccsccccccccsccccscccccccccccccccccccccccccsccccccccccccccccccccccscccccccccccccccccccccccccccccccccccsccccccccccsccccccsccccccccccccccccccccccccccccccccsccccccsccccscccccccccccccccccccccccccsccccccccccccccccccccccsccccccccsccccscccccccccccccccccccccccccsccccccccccccccccccccccccccccccscccccccccccccccccccccccccccccccccccccccccccccccsccccccccccscccccccccccccccccccccccccsccccccccccsccccccsccccccccsccccscccccccccccccccccccccccccsccccccccccccccccccccccscccccccccccccsccccccccccccccccccccccccccccccccccccccccccccccccccccccccccccccccccccsccccccccsccccccccccccccccccccccccccccccccccccccccccccscscscsccscscscsccccccccccsccccccccccccccccccccccccccccccccccccccccccccccccccccccccccccccccccccccc"
         inkscape:export-filename="/home/jesusjmma/Documentos/Logos/EventEX/EventEX grande.png"
         inkscape:export-xdpi="397.431"
         inkscape:export-ydpi="397.431" /><path
         style="fill:#ffffff;fill-opacity:1;stroke-width:0.746469"
         d="M -6e-7,215.87723 V 171.57119 H 31.627802 63.255604 v 6.76775 6.7677 H 39.117442 14.979196 v 11.9563 11.95635 h 21.611616 21.611557 v 6.67748 6.67746 H 36.590812 14.979196 v 12.1819 12.18185 h 24.905226 24.905227 v 6.72267 6.72256 H 32.394782 -6e-7 Z M 372.85635,215.87723 v -44.30604 h 31.67291 31.6729 v 6.76775 6.7677 H 412.064 387.92582 v 11.9563 11.95635 h 21.61156 21.61163 v 6.67748 6.67746 h -21.61163 -21.61156 v 12.1819 12.18185 h 24.90524 24.90521 v 6.72267 6.72256 h -32.43995 -32.43997 z m 73.27186,44.26128 c 0,-0.0245 7.2454,-10.24566 16.10081,-22.71238 l 16.10085,-22.66685 -0.16093,-0.23109 c -3.57742,-5.12065 -29.78453,-42.876 -29.78453,-42.90931 0,-0.0245 3.91066,-0.0491 8.6904,-0.0491 h 8.69031 l 10.76191,15.29369 c 5.91907,8.41152 10.78949,15.30974 10.8232,15.32941 0.0294,0.0245 4.93523,-6.85239 10.89213,-15.27112 l 10.83086,-15.30684 8.77303,-0.0245 c 4.82512,-0.0147 8.77303,-0.003 8.77303,0.0245 0,0.0245 -6.61124,9.49561 -14.69172,21.04805 -8.08042,11.5525 -14.76124,21.11077 -14.84631,21.24059 l -0.15456,0.2365 15.98644,22.81934 c 8.7926,12.55057 16.04654,22.91064 16.12009,23.02232 l 0.13345,0.20263 h -8.96821 -8.96811 l -11.90939,-16.64552 c -6.5501,-9.15499 -11.92961,-16.64478 -11.95439,-16.64385 -0.0245,8.9e-4 -5.36646,7.48125 -11.87014,16.62295 l -11.82506,16.62133 -8.7714,0.0245 c -4.82425,0.0147 -8.77147,0.003 -8.77147,-0.0245 z"
         id="path826-3-6-7"
         inkscape:connector-curvature="0"
         sodipodi:nodetypes="cccccccccccccccccccccccccccccccccaccccccccccccccccccccssccccccsscccccccscscccc"
         inkscape:export-filename="/home/jesusjmma/Documentos/Logos/EventEX/EventEX grande.png"
         inkscape:export-xdpi="397.431"
         inkscape:export-ydpi="397.431" /></g></g></svg>
