<?xml version="1.0" encoding="UTF-8" standalone="no"?>
<!-- Created with Inkscape (http://www.inkscape.org/) -->

<svg
   width="100"
   height="100"
   viewBox="0 0 26.458333 26.458333"
   version="1.1"
   id="svg1"
   xml:space="preserve"
   inkscape:version="1.3.2 (091e20ef0f, 2023-11-25)"
   sodipodi:docname="Instagram.svg"
   inkscape:export-filename="Instagram.png"
   inkscape:export-xdpi="96"
   inkscape:export-ydpi="96"
   xmlns:inkscape="http://www.inkscape.org/namespaces/inkscape"
   xmlns:sodipodi="http://sodipodi.sourceforge.net/DTD/sodipodi-0.dtd"
   xmlns="http://www.w3.org/2000/svg"
   xmlns:svg="http://www.w3.org/2000/svg"><sodipodi:namedview
     id="namedview1"
     pagecolor="#ffffff"
     bordercolor="#cccccc"
     borderopacity="1"
     inkscape:showpageshadow="0"
     inkscape:pageopacity="1"
     inkscape:pagecheckerboard="0"
     inkscape:deskcolor="#d1d1d1"
     inkscape:document-units="mm"
     inkscape:zoom="3.462611"
     inkscape:cx="62.091872"
     inkscape:cy="16.172767"
     inkscape:window-width="1920"
     inkscape:window-height="1001"
     inkscape:window-x="0"
     inkscape:window-y="32"
     inkscape:window-maximized="1"
     inkscape:current-layer="layer1" /><defs
     id="defs1" /><g
     inkscape:label="Capa 1"
     inkscape:groupmode="layer"
     id="layer1"
     transform="translate(0,-270.54166)"><circle
       style="fill:#4ec3e0;fill-opacity:1;stroke:none;stroke-width:28.1982"
       id="Circulo"
       cx="13.229167"
       cy="283.77084"
       r="13.229167"
       sodipodi:insensitive="true" /><path
       fill="currentColor"
       d="m 9.5342266,274.97335 h 7.3898784 c 2.815193,0 5.102537,2.28736 5.102537,5.10255 v 7.38988 a 5.1025353,5.1025353 0 0 1 -5.102537,5.10253 H 9.5342266 c -2.815192,0 -5.1025349,-2.28734 -5.1025349,-5.10253 v -7.38988 a 5.1025353,5.1025353 0 0 1 5.1025349,-5.10255 m -0.175949,1.75951 a 3.1670909,3.1670909 0 0 0 -3.167091,3.16709 v 7.74177 c 0,1.7507 1.416393,3.16709 3.167091,3.16709 h 7.7417774 a 3.1670909,3.1670909 0 0 0 3.167091,-3.16709 v -7.74177 c 0,-1.7507 -1.416393,-3.16709 -3.167091,-3.16709 z m 8.4895624,1.31961 a 1.0996843,1.0996843 0 0 1 1.099685,1.0997 1.0996843,1.0996843 0 0 1 -1.099685,1.09967 1.0996843,1.0996843 0 0 1 -1.099683,-1.09967 1.0996843,1.0996843 0 0 1 1.099683,-1.0997 m -4.618674,1.31963 a 4.3987372,4.3987372 0 0 1 4.398738,4.39874 4.3987372,4.3987372 0 0 1 -4.398738,4.39873 4.3987372,4.3987372 0 0 1 -4.3987364,-4.39873 4.3987372,4.3987372 0 0 1 4.3987364,-4.39874 m 0,1.75949 a 2.6392423,2.6392423 0 0 0 -2.639242,2.63925 2.6392423,2.6392423 0 0 0 2.639242,2.63924 2.6392423,2.6392423 0 0 0 2.639242,-2.63924 2.6392423,2.6392423 0 0 0 -2.639242,-2.63925"
       id="path1"
       style="fill:#ffffff;stroke-width:0.879745" /></g></svg>
