<?xml version="1.0" encoding="UTF-8" standalone="no"?>
<!-- Created with Inkscape (http://www.inkscape.org/) -->

<svg
   width="100"
   height="100"
   viewBox="0 0 26.458333 26.458333"
   version="1.1"
   id="svg1"
   xml:space="preserve"
   inkscape:version="1.3.2 (091e20ef0f, 2023-11-25)"
   sodipodi:docname="Telegram.svg"
   inkscape:export-filename="Telegram.png"
   inkscape:export-xdpi="96"
   inkscape:export-ydpi="96"
   xmlns:inkscape="http://www.inkscape.org/namespaces/inkscape"
   xmlns:sodipodi="http://sodipodi.sourceforge.net/DTD/sodipodi-0.dtd"
   xmlns="http://www.w3.org/2000/svg"
   xmlns:svg="http://www.w3.org/2000/svg"><sodipodi:namedview
     id="namedview1"
     pagecolor="#ffffff"
     bordercolor="#cccccc"
     borderopacity="1"
     inkscape:showpageshadow="0"
     inkscape:pageopacity="1"
     inkscape:pagecheckerboard="0"
     inkscape:deskcolor="#d1d1d1"
     inkscape:document-units="mm"
     inkscape:zoom="3.462611"
     inkscape:cx="62.380671"
     inkscape:cy="16.172767"
     inkscape:window-width="1920"
     inkscape:window-height="1001"
     inkscape:window-x="0"
     inkscape:window-y="32"
     inkscape:window-maximized="1"
     inkscape:current-layer="layer1" /><defs
     id="defs1" /><g
     inkscape:label="Capa 1"
     inkscape:groupmode="layer"
     id="layer1"
     transform="translate(0,-270.54166)"><path
       fill="currentColor"
       d="M 13.229167,270.54165 C 5.9266672,270.54165 0,276.46832 0,283.77082 c 0,7.3025 5.9266672,13.22917 13.229167,13.22917 7.3025,0 13.229166,-5.92667 13.229166,-13.22917 0,-7.3025 -5.926666,-13.22917 -13.229166,-13.22917 m 6.138332,8.99583 c -0.198437,2.09021 -1.058332,7.17022 -1.494895,9.51178 -0.185209,0.99219 -0.555625,1.32291 -0.899583,1.3626 -0.767292,0.0662 -1.349376,-0.50271 -2.090209,-0.99218 -1.164166,-0.76729 -1.825625,-1.24355 -2.950104,-1.98439 -1.309687,-0.85989 -0.463021,-1.33614 0.291042,-2.10343 0.198437,-0.19844 3.585103,-3.28084 3.65125,-3.55865 a 0.26458333,0.26458333 0 0 0 -0.06615,-0.23812 c -0.07937,-0.0662 -0.185208,-0.0397 -0.277812,-0.0265 -0.119062,0.0265 -1.971146,1.25678 -5.5827082,3.69095 -0.5291663,0.35718 -1.0054165,0.54239 -1.4287493,0.52916 -0.4762468,-0.0132 -1.3758299,-0.26459 -2.0505182,-0.48948 -0.8334372,-0.26458 -1.4816663,-0.4101 -1.4287497,-0.87312 0.026459,-0.23813 0.3571876,-0.47625 0.9789582,-0.72761 3.8629164,-1.68011 6.4293752,-2.79136 7.7126032,-3.32052 3.67771,-1.53458 4.431772,-1.79917 4.934479,-1.79917 0.10583,0 0.357188,0.0265 0.515938,0.15876 0.132292,0.10585 0.171979,0.25135 0.185208,0.35718 -0.01322,0.0794 0.01324,0.3175 0,0.50271"
       id="path1"
       style="stroke-width:1.32292;fill:#4ec3e0;fill-opacity:1" /></g></svg>
