<?xml version="1.0" encoding="UTF-8" standalone="no"?>
<!-- Created with Inkscape (http://www.inkscape.org/) -->

<svg
   width="100"
   height="100"
   viewBox="0 0 26.458333 26.458333"
   version="1.1"
   id="svg1"
   xml:space="preserve"
   inkscape:version="1.3.2 (091e20ef0f, 2023-11-25)"
   sodipodi:docname="Web.svg"
   inkscape:export-filename="Web.png"
   inkscape:export-xdpi="96"
   inkscape:export-ydpi="96"
   xmlns:inkscape="http://www.inkscape.org/namespaces/inkscape"
   xmlns:sodipodi="http://sodipodi.sourceforge.net/DTD/sodipodi-0.dtd"
   xmlns="http://www.w3.org/2000/svg"
   xmlns:svg="http://www.w3.org/2000/svg"><sodipodi:namedview
     id="namedview1"
     pagecolor="#ffffff"
     bordercolor="#cccccc"
     borderopacity="1"
     inkscape:showpageshadow="0"
     inkscape:pageopacity="1"
     inkscape:pagecheckerboard="0"
     inkscape:deskcolor="#d1d1d1"
     inkscape:document-units="mm"
     inkscape:zoom="4.5622576"
     inkscape:cx="42.741997"
     inkscape:cy="30.686562"
     inkscape:window-width="1920"
     inkscape:window-height="1001"
     inkscape:window-x="0"
     inkscape:window-y="32"
     inkscape:window-maximized="1"
     inkscape:current-layer="layer1" /><defs
     id="defs1" /><g
     inkscape:label="Capa 1"
     inkscape:groupmode="layer"
     id="layer1"
     transform="translate(0,-270.54166)"><circle
       style="fill:#4ec3e0;fill-opacity:1;stroke:none;stroke-width:28.1982"
       id="Circulo"
       cx="13.229167"
       cy="283.77084"
       r="13.229167"
       sodipodi:insensitive="true" /><g
       fill="none"
       stroke="currentColor"
       stroke-linecap="round"
       stroke-linejoin="round"
       stroke-width="2"
       id="g3"
       transform="matrix(1.0042795,0,0,1.0042795,1.1778127,271.71947)"
       style="stroke:#ffffff;stroke-width:1.60074;stroke-dasharray:none"><path
         d="M 19.5,7 A 9,9 0 0 0 12,3 8.991,8.991 0 0 0 4.516,7"
         id="path1"
         style="stroke:#ffffff;stroke-width:1.60074;stroke-dasharray:none" /><path
         d="M 11.5,3 A 16.989,16.989 0 0 0 9.674,7 M 12.5,3 a 16.989,16.989 0 0 1 1.828,4 M 19.5,17 A 9,9 0 0 1 12,21 8.991,8.991 0 0 1 4.516,17"
         id="path2"
         style="stroke:#ffffff;stroke-width:1.60074;stroke-dasharray:none" /><path
         d="M 11.5,21 A 16.989,16.989 0 0 1 9.674,17 m 2.826,4 a 16.989,16.989 0 0 0 1.828,-4 M 2,10 3,14 4.5,10 6,14 7,10 m 10,0 1,4 1.5,-4 1.5,4 1,-4 m -12.5,0 1,4 1.5,-4 1.5,4 1,-4"
         id="path3"
         style="stroke:#ffffff;stroke-width:1.60074;stroke-dasharray:none" /></g></g></svg>
