<?xml version="1.0" encoding="UTF-8" standalone="no"?>
<!-- Created with Inkscape (http://www.inkscape.org/) -->

<svg
   width="100"
   height="100"
   viewBox="0 0 26.458333 26.458333"
   version="1.1"
   id="svg1"
   xml:space="preserve"
   inkscape:version="1.3.2 (091e20ef0f, 2023-11-25)"
   sodipodi:docname="YouTube.svg"
   inkscape:export-filename="YouTube.png"
   inkscape:export-xdpi="96"
   inkscape:export-ydpi="96"
   xmlns:inkscape="http://www.inkscape.org/namespaces/inkscape"
   xmlns:sodipodi="http://sodipodi.sourceforge.net/DTD/sodipodi-0.dtd"
   xmlns="http://www.w3.org/2000/svg"
   xmlns:svg="http://www.w3.org/2000/svg"><sodipodi:namedview
     id="namedview1"
     pagecolor="#ffffff"
     bordercolor="#cccccc"
     borderopacity="1"
     inkscape:showpageshadow="0"
     inkscape:pageopacity="1"
     inkscape:pagecheckerboard="0"
     inkscape:deskcolor="#d1d1d1"
     inkscape:document-units="mm"
     inkscape:zoom="4.5622576"
     inkscape:cx="42.741997"
     inkscape:cy="30.686562"
     inkscape:window-width="1920"
     inkscape:window-height="1001"
     inkscape:window-x="0"
     inkscape:window-y="32"
     inkscape:window-maximized="1"
     inkscape:current-layer="layer1" /><defs
     id="defs1" /><g
     inkscape:label="Capa 1"
     inkscape:groupmode="layer"
     id="layer1"
     transform="translate(0,-270.54166)"><circle
       style="fill:#4ec3e0;fill-opacity:1;stroke:none;stroke-width:28.1982"
       id="Circulo"
       cx="13.229167"
       cy="283.77084"
       r="13.229167"
       sodipodi:insensitive="true" /><path
       fill="currentColor"
       d="m 13.229166,275.83335 c 0.848324,0 1.718472,0.0225 2.561834,0.0577 l 0.99616,0.0476 0.953492,0.0566 0.892971,0.0604 0.815582,0.0634 a 3.772306,3.772306 0 0 1 3.466711,3.39627 l 0.03967,0.42169 0.0744,0.90288 c 0.06945,0.93563 0.121051,1.9556 0.121051,2.93094 0,0.97534 -0.0516,1.99531 -0.121051,2.93093 l -0.0744,0.90289 c -0.01275,0.14475 -0.02587,0.28463 -0.03967,0.42169 a 3.772306,3.772306 0 0 1 -3.467705,3.39627 l -0.813594,0.0626 -0.892971,0.0615 -0.954486,0.0566 -0.99616,0.0476 a 61.108973,61.108973 0 0 1 -2.561834,0.0574 61.108973,61.108973 0 0 1 -2.561833,-0.0574 l -0.9961603,-0.0476 -0.953492,-0.0566 -0.892972,-0.0615 -0.815581,-0.0626 a 3.772306,3.772306 0 0 1 -3.466711,-3.39627 l -0.03967,-0.42169 -0.0744,-0.90289 a 40.344424,40.344424 0 0 1 -0.12105,-2.93093 c 0,-0.97534 0.0516,-1.99531 0.12105,-2.93094 l 0.0744,-0.90288 c 0.01275,-0.14475 0.02587,-0.28463 0.03967,-0.42169 a 3.772306,3.772306 0 0 1 3.465721,-3.39627 l 0.814588,-0.0634 0.892967,-0.0604 0.95449,-0.0566 0.9961563,-0.0476 a 61.194302,61.194302 0 0 1 2.562827,-0.0577 m 0,1.98439 c -0.818556,0 -1.660927,0.0225 -2.480473,0.0555 l -0.9703643,0.0465 -0.931667,0.0548 -0.87511,0.0596 -0.801688,0.0626 a 1.7879262,1.7879262 0 0 0 -1.652988,1.61033 c -0.116101,1.19955 -0.225226,2.69281 -0.225226,4.064 0,1.37118 0.109125,2.86444 0.225226,4.06399 0.08434,0.8652 0.77093,1.53792 1.652988,1.61033 l 0.801688,0.0615 0.87511,0.0596 0.931667,0.0555 0.9703643,0.0465 c 0.819546,0.0337 1.661917,0.0555 2.480473,0.0555 0.818556,0 1.660924,-0.0225 2.480474,-0.0555 l 0.970363,-0.0465 0.931668,-0.0544 0.87511,-0.0596 0.801688,-0.0626 a 1.7879262,1.7879262 0 0 0 1.652989,-1.61033 c 0.1161,-1.19955 0.225226,-2.69281 0.225226,-4.06399 0,-1.37119 -0.109164,-2.86445 -0.225226,-4.064 a 1.7879262,1.7879262 0 0 0 -1.652989,-1.61033 l -0.801688,-0.0615 -0.87511,-0.0596 -0.931668,-0.0555 -0.970363,-0.0465 a 60.218981,60.218981 0 0 0 -2.480474,-0.0555 m -1.984381,3.54709 a 0.59531393,0.59531393 0 0 1 0.812604,-0.55467 l 0.08036,0.0397 4.167198,2.40508 a 0.59531393,0.59531393 0 0 1 0.08434,0.97233 l -0.08434,0.0596 -4.167198,2.40608 a 0.59531393,0.59531393 0 0 1 -0.887016,-0.42663 l -0.006,-0.0892 z"
       id="path2"
       style="fill:#ffffff;stroke-width:0.992184" /></g></svg>
