<?xml version="1.0" encoding="UTF-8" standalone="no"?>
<svg
   width="256.00003"
   height="256"
   viewBox="0 0 256.00003 256"
   data-name="Instagram w/circle"
   version="1.1"
   id="svg4"
   sodipodi:docname="DEFC.svg"
   inkscape:version="1.2.2 (732a01da63, 2022-12-09)"
   inkscape:export-filename="DEFC.png"
   inkscape:export-xdpi="95.999992"
   inkscape:export-ydpi="95.999992"
   xmlns:inkscape="http://www.inkscape.org/namespaces/inkscape"
   xmlns:sodipodi="http://sodipodi.sourceforge.net/DTD/sodipodi-0.dtd"
   xmlns="http://www.w3.org/2000/svg"
   xmlns:svg="http://www.w3.org/2000/svg">
  <defs
     id="defs8" />
  <sodipodi:namedview
     id="namedview6"
     pagecolor="#ffffff"
     bordercolor="#666666"
     borderopacity="1.0"
     inkscape:pageshadow="2"
     inkscape:pageopacity="0"
     inkscape:pagecheckerboard="true"
     showgrid="false"
     inkscape:zoom="2.5582312"
     inkscape:cx="-39.284957"
     inkscape:cy="141.11313"
     inkscape:window-width="3840"
     inkscape:window-height="2054"
     inkscape:window-x="2869"
     inkscape:window-y="-11"
     inkscape:window-maximized="1"
     inkscape:current-layer="g115"
     width="16.2px"
     height="16px"
     scale-x="1"
     inkscape:showpageshadow="0"
     inkscape:deskcolor="#ffffff" />
  <g
     id="g115"
     transform="matrix(62.5,0,0,62.5,-154.51064,-193.68531)">
    <circle
       style="fill:#3eb1c8;stroke-width:0.00648;stroke-dasharray:none;stroke:none;stroke-opacity:1;fill-opacity:1"
       id="path3868"
       cx="4.5201702"
       cy="5.146965"
       r="2.0480001" />
    <path
       d="m 11.346276,5.1376995 a 1.656,1.656 0 0 0 -0.95,-0.949 2.766,2.766 0 0 0 -0.9280002,-0.172 c -0.527,-0.024 -0.685,-0.03 -2.02,-0.03 -1.335,0 -1.493,0.006 -2.02,0.03 a 2.766,2.766 0 0 0 -0.929,0.172 1.656,1.656 0 0 0 -0.949,0.95 2.766,2.766 0 0 0 -0.172,0.928 c -0.024,0.527 -0.03,0.685 -0.03,2.02 0,1.335 0.006,1.493 0.03,2.0199995 a 2.766,2.766 0 0 0 0.172,0.929 1.656,1.656 0 0 0 0.95,0.949 2.766,2.766 0 0 0 0.928,0.172 c 0.527,0.024 0.685,0.029 2.02,0.029 1.335,0 1.493,-0.005 2.02,-0.03 a 2.766,2.766 0 0 0 0.9290002,-0.171 1.656,1.656 0 0 0 0.949,-0.95 2.766,2.766 0 0 0 0.172,-0.928 c 0.024,-0.5269995 0.029,-0.6849995 0.029,-2.0199995 0,-1.335 -0.005,-1.493 -0.03,-2.02 a 2.766,2.766 0 0 0 -0.171,-0.929 z M 7.4482758,10.654699 A 2.568,2.568 0 1 1 10.016276,8.0866995 2.568,2.568 0 0 1 7.4482758,10.654699 Z M 10.117276,6.0176995 a 0.6,0.6 0 1 1 0.6,-0.6 0.6,0.6 0 0 1 -0.6,0.6 z m -1.0020002,2.069 a 1.667,1.667 0 1 1 -1.667,-1.667 1.667,1.667 0 0 1 1.667,1.667 z m -1.667,-9.6 a 9.6,9.6 0 1 0 9.6000002,9.6 9.6,9.6 0 0 0 -9.6000002,-9.6 z M 12.418276,10.147699 a 3.67,3.67 0 0 1 -0.233,1.214 2.556,2.556 0 0 1 -1.462,1.462 3.67,3.67 0 0 1 -1.2130002,0.233 c -0.534,0.024 -0.704,0.03 -2.062,0.03 -1.358,0 -1.528,-0.006 -2.062,-0.03 a 3.67,3.67 0 0 1 -1.213,-0.233 2.556,2.556 0 0 1 -1.462,-1.462 3.67,3.67 0 0 1 -0.233,-1.213 c -0.024,-0.5339995 -0.03,-0.7039995 -0.03,-2.0619995 0,-1.358 0.006,-1.528 0.03,-2.062 a 3.67,3.67 0 0 1 0.232,-1.213 2.556,2.556 0 0 1 1.463,-1.463 3.67,3.67 0 0 1 1.213,-0.232 c 0.534,-0.024 0.704,-0.03 2.062,-0.03 1.358,0 1.528,0.006 2.062,0.03 a 3.67,3.67 0 0 1 1.2130002,0.232 2.556,2.556 0 0 1 1.462,1.463 3.67,3.67 0 0 1 0.233,1.213 c 0.024,0.534 0.03,0.704 0.03,2.062 0,1.358 -0.006,1.528 -0.03,2.0619995 z"
       id="path2"
       style="fill:none" />
    <g
       id="Logo_Simple_-_Cuadrdado"
       transform="matrix(0.005377,0,0,0.005377,2.9204099,3.2889836)">
	<g
   id="g518">
		<g
   id="g506">
			<g
   id="g4201_16_"
   transform="matrix(4.8726563,0,0,-4.8726563,447.26515,886.88328)">
				<path
   id="path4203_16_"
   inkscape:connector-curvature="0"
   class="st9"
   d="M -91.8,134.8 V 115.1 L -55,125.8 Z"
   style="fill:#ffffff" />

			</g>

			<g
   id="g4205_16_"
   transform="matrix(4.8726563,0,0,-4.8726563,588.97811,984.14685)">
				<path
   id="path4207_16_"
   inkscape:connector-curvature="0"
   class="st9"
   d="m -80.9,127.3 v 17.1 l -36.3,-10.5 z"
   style="fill:#ffffff" />

			</g>

			<g
   id="g4209_16_"
   transform="matrix(4.8726563,0,0,-4.8726563,592.14142,914.25833)">
				<path
   id="path4211_16_"
   inkscape:connector-curvature="0"
   class="st9"
   d="m -80.6,132.7 15.8,10.5 -50,-2.2 z"
   style="fill:#ffffff" />

			</g>

			<g
   id="g4213_16_"
   transform="matrix(4.8726563,0,0,-4.8726563,456.77461,877.43617)">
				<path
   id="path4215_16_"
   inkscape:connector-curvature="0"
   class="st9"
   d="m -91.1,135.5 56.8,2.5 v 36.6 z"
   style="fill:#ffffff" />

			</g>

			<g
   id="g4217_16_"
   transform="matrix(4.8726563,0,0,-4.8726563,669.34036,739.14043)">
				<path
   id="path4219_16_"
   inkscape:connector-curvature="0"
   class="st9"
   d="M -74.7,146.1 V 109.5 L -17.9,107 Z"
   style="fill:#ffffff" />

			</g>

			<g
   id="g4221_16_"
   transform="matrix(4.8726563,0,0,-4.8726563,679.21627,876.94548)">
				<path
   id="path4223_16_"
   inkscape:connector-curvature="0"
   class="st9"
   d="m -73.9,135.5 15.8,-10.5 34.2,8.4 z"
   style="fill:#ffffff" />

			</g>

			<g
   id="g4225_16_"
   transform="matrix(4.8726563,0,0,-4.8726563,749.54624,918.77477)">
				<path
   id="path4227_16_"
   inkscape:connector-curvature="0"
   class="st9"
   d="m -68.5,132.3 36.8,-10.7 v 19.7 z"
   style="fill:#ffffff" />

			</g>

			<g
   id="g4229_16_"
   transform="matrix(4.8726563,0,0,-4.8726563,738.34646,984.14685)">
				<path
   id="path4231_16_"
   inkscape:connector-curvature="0"
   class="st9"
   d="m -69.4,127.3 36.3,6.5 -36.3,10.5 z"
   style="fill:#ffffff" />

			</g>

		</g>

		<g
   id="g516">
			<path
   class="st9"
   d="m 92.4,431.5 c 21.6,0 39.3,6.4 53.3,19.1 13.9,12.7 20.9,28.7 20.9,48 0,19.3 -7.1,35.4 -21.4,48.4 -14.3,13 -32.2,19.5 -53.8,19.5 H 44.3 v -135 z M 73.8,540.9 H 93 c 12.8,0 23.4,-4 31.8,-11.9 8.3,-8 12.5,-18 12.5,-30.1 0,-12.1 -4.2,-22.1 -12.5,-30 C 116.5,461 105.9,457.1 93,457.1 H 73.8 Z"
   id="path508"
   style="fill:#ffffff" />

			<path
   class="st9"
   d="M 190.7,566.3 V 431.5 h 99.2 v 25.6 H 220.2 V 485 h 60.1 v 23.9 h -60.1 v 32 h 71.7 v 25.4 z"
   id="path510"
   style="fill:#ffffff" />

			<path
   class="st9"
   d="m 345.4,515.8 v 50.5 H 315.9 V 431.5 h 97.3 v 25.6 H 345.4 V 491 h 58.2 v 24.9 h -58.2 z"
   id="path512"
   style="fill:#ffffff" />

			<path
   class="st9"
   d="m 447.3,449.9 c 13.7,-13.6 30.6,-20.3 50.7,-20.3 6.7,0 13,0.7 19,2.2 6,1.5 10.9,3.3 14.7,5.4 3.9,2.1 7.2,4.3 10,6.5 2.8,2.2 4.9,4 6.2,5.6 l 1.9,2.1 -21.6,18.9 c -0.3,-0.4 -0.6,-0.9 -1.2,-1.4 -0.5,-0.6 -1.7,-1.6 -3.7,-3.2 -1.9,-1.5 -4,-2.9 -6.1,-4.1 -2.1,-1.2 -5,-2.3 -8.6,-3.3 -3.6,-1 -7.3,-1.4 -11.2,-1.4 -11.9,0 -21.8,4 -29.7,12.1 -7.8,8.1 -11.8,18.1 -11.8,30.1 0,12.1 3.9,22.2 11.8,30.2 7.8,8.1 17.7,12.1 29.7,12.1 4.1,0 8,-0.5 11.8,-1.6 3.7,-1.1 6.8,-2.4 9.2,-3.9 2.4,-1.5 4.6,-3 6.4,-4.5 1.8,-1.5 3.1,-2.8 4,-3.9 l 1.2,-1.7 20.8,18.5 c -0.5,0.6 -1.2,1.5 -2.1,2.6 -0.9,1.1 -3,3 -6.2,5.8 -3.2,2.8 -6.7,5.2 -10.6,7.3 -3.9,2.1 -8.9,4 -15.2,5.8 -6.3,1.7 -12.9,2.6 -19.8,2.6 -20,0 -36.8,-6.6 -50.2,-19.7 -13.4,-13.2 -20.1,-29.5 -20.1,-49 0.1,-19.8 7,-36.3 20.7,-49.8 z"
   id="path514"
   style="fill:#ffffff" />

		</g>

	</g>

</g>
  </g>
</svg>
