<?xml version="1.0" encoding="UTF-8" standalone="no"?>
<svg
   class="icon icon-tabler icon-tabler-brand-discord"
   width="256"
   height="256"
   viewBox="0 0 256 256"
   stroke-width="2"
   stroke="currentColor"
   fill="none"
   stroke-linecap="round"
   stroke-linejoin="round"
   version="1.1"
   id="svg696"
   sodipodi:docname="Discord.svg"
   inkscape:version="1.2.2 (732a01da63, 2022-12-09)"
   inkscape:export-filename="Discord.png"
   inkscape:export-xdpi="96"
   inkscape:export-ydpi="96"
   xmlns:inkscape="http://www.inkscape.org/namespaces/inkscape"
   xmlns:sodipodi="http://sodipodi.sourceforge.net/DTD/sodipodi-0.dtd"
   xmlns="http://www.w3.org/2000/svg"
   xmlns:svg="http://www.w3.org/2000/svg">
  <defs
     id="defs700" />
  <sodipodi:namedview
     id="namedview698"
     pagecolor="#505050"
     bordercolor="#ffffff"
     borderopacity="1"
     inkscape:showpageshadow="0"
     inkscape:pageopacity="0"
     inkscape:pagecheckerboard="1"
     inkscape:deskcolor="#505050"
     showgrid="false"
     inkscape:zoom="2.370983"
     inkscape:cx="-30.367152"
     inkscape:cy="124.63185"
     inkscape:window-width="1773"
     inkscape:window-height="1259"
     inkscape:window-x="3675"
     inkscape:window-y="773"
     inkscape:window-maximized="0"
     inkscape:current-layer="svg696" />
  <circle
     style="fill:#3eb1c8;fill-opacity:1;stroke:none;stroke-width:10;stroke-dasharray:none;stroke-opacity:1"
     id="path3868"
     cx="128"
     cy="128"
     r="128" />
  <path
     stroke="none"
     d="M 0,0 H 24 V 24 H 0 Z"
     fill="none"
     id="path686" />
  <g
     id="g2070"
     transform="matrix(8.6872232,0,0,8.6872232,23.753322,23.753292)">
    <path
       d="m 8,12 a 1,1 0 1 0 2,0 1,1 0 0 0 -2,0"
       id="path688"
       style="fill:none;stroke:#ffffff;stroke-opacity:1" />
    <path
       d="m 14,12 a 1,1 0 1 0 2,0 1,1 0 0 0 -2,0"
       id="path690"
       style="fill:none;stroke:#ffffff;stroke-opacity:1" />
    <path
       d="m 15.5,17 c 0,1 1.5,3 2,3 C 19,20 20.333,18.333 21,17 21.667,15.333 21.5,11.167 19.5,5.5 18.043,4.485 16.5,4.16 15,4 l -0.972,1.923 a 11.913,11.913 0 0 0 -4.053,0 L 9,4 C 7.5,4.16 5.957,4.485 4.5,5.5 2.5,11.167 2.333,15.333 3,17 c 0.667,1.333 2,3 3.5,3 0.5,0 2,-2 2,-3"
       id="path692"
       style="fill:none;stroke:#ffffff;stroke-opacity:1" />
    <path
       d="m 7,16.5 c 3.5,1 6.5,1 10,0"
       id="path694"
       style="fill:none;stroke:#ffffff;stroke-opacity:1" />
  </g>
</svg>
