<?xml version="1.0" encoding="UTF-8" standalone="no"?>
<svg
   class="icon icon-tabler icon-tabler-brand-github"
   width="256"
   height="256"
   viewBox="0 0 256 256"
   stroke-width="2"
   stroke="currentColor"
   fill="none"
   stroke-linecap="round"
   stroke-linejoin="round"
   version="1.1"
   id="svg1887"
   sodipodi:docname="GitHub.svg"
   inkscape:version="1.2.2 (732a01da63, 2022-12-09)"
   inkscape:export-filename="GitHub.png"
   inkscape:export-xdpi="96"
   inkscape:export-ydpi="96"
   xmlns:inkscape="http://www.inkscape.org/namespaces/inkscape"
   xmlns:sodipodi="http://sodipodi.sourceforge.net/DTD/sodipodi-0.dtd"
   xmlns="http://www.w3.org/2000/svg"
   xmlns:svg="http://www.w3.org/2000/svg">
  <defs
     id="defs1891" />
  <sodipodi:namedview
     id="namedview1889"
     pagecolor="#505050"
     bordercolor="#ffffff"
     borderopacity="1"
     inkscape:showpageshadow="0"
     inkscape:pageopacity="0"
     inkscape:pagecheckerboard="1"
     inkscape:deskcolor="#505050"
     showgrid="false"
     inkscape:zoom="2.0594424"
     inkscape:cx="6.0696041"
     inkscape:cy="108.76731"
     inkscape:window-width="3840"
     inkscape:window-height="2054"
     inkscape:window-x="2869"
     inkscape:window-y="-11"
     inkscape:window-maximized="1"
     inkscape:current-layer="svg1887" />
  <circle
     style="fill:#3eb1c8;fill-opacity:1;stroke:none;stroke-width:10;stroke-dasharray:none;stroke-opacity:1"
     id="path3868"
     cx="128"
     cy="128"
     r="128"
     inkscape:export-filename="GitHub.png"
     inkscape:export-xdpi="96"
     inkscape:export-ydpi="96" />
  <path
     stroke="none"
     d="M 0,0 H 24 V 24 H 0 Z"
     fill="none"
     id="path1883" />
  <path
     d="M 106.66713,194.19851 C 69.974595,206.14492 69.974595,172.86564 55.468244,168.59907 m 102.397776,42.66574 v -29.86602 c 0,-8.53315 0.85332,-11.94641 -4.26656,-17.06631 23.8928,-2.55992 46.9323,-11.9464 46.9323,-51.19888 A 39.25248,39.25248 0 0 0 189.43867,85.827529 35.83922,35.83922 0 0 0 188.58535,58.521458 c 0,0 -9.38646,-2.559945 -29.86601,11.093091 a 104.95772,104.95772 0 0 0 -52.90552,0 C 85.33426,55.961513 75.947798,58.521458 75.947798,58.521458 A 35.83922,35.83922 0 0 0 75.094484,85.827529 39.25248,39.25248 0 0 0 64.001391,113.1336 c 0,39.25248 23.0395,48.63896 46.932319,51.19888 -5.11989,5.1199 -5.11989,10.23979 -4.26658,17.06631 v 29.86602"
     id="path1885"
     style="fill:none;stroke:#ffffff;stroke-width:17.0663;stroke-opacity:1" />
</svg>
