<?xml version="1.0" encoding="UTF-8" standalone="no"?>
<svg
   class="icon icon-tabler icon-tabler-brand-instagram"
   width="256"
   height="256"
   viewBox="0 0 256 256"
   stroke-width="2"
   stroke="currentColor"
   fill="none"
   stroke-linecap="round"
   stroke-linejoin="round"
   version="1.1"
   id="svg10"
   sodipodi:docname="Instagram.svg"
   inkscape:version="1.2.2 (732a01da63, 2022-12-09)"
   inkscape:export-filename="Instagram.png"
   inkscape:export-xdpi="96"
   inkscape:export-ydpi="96"
   xmlns:inkscape="http://www.inkscape.org/namespaces/inkscape"
   xmlns:sodipodi="http://sodipodi.sourceforge.net/DTD/sodipodi-0.dtd"
   xmlns="http://www.w3.org/2000/svg"
   xmlns:svg="http://www.w3.org/2000/svg">
  <defs
     id="defs14" />
  <sodipodi:namedview
     id="namedview12"
     pagecolor="#505050"
     bordercolor="#ffffff"
     borderopacity="1"
     inkscape:showpageshadow="0"
     inkscape:pageopacity="0"
     inkscape:pagecheckerboard="1"
     inkscape:deskcolor="#505050"
     showgrid="false"
     inkscape:zoom="2.0472967"
     inkscape:cx="-82.792103"
     inkscape:cy="136.76572"
     inkscape:window-width="3840"
     inkscape:window-height="2054"
     inkscape:window-x="2869"
     inkscape:window-y="-11"
     inkscape:window-maximized="1"
     inkscape:current-layer="svg10" />
  <g
     id="g1216"
     transform="matrix(62.5,0,0,62.5,-154.51064,-193.68531)"
     style="fill:#3eb1c8;fill-opacity:1"
     inkscape:export-filename="Instagram.png"
     inkscape:export-xdpi="96"
     inkscape:export-ydpi="96">
    <circle
       style="fill:#3eb1c8;fill-opacity:1;stroke:none;stroke-width:0.16;stroke-dasharray:none;stroke-opacity:1"
       id="path3868"
       cx="4.5201702"
       cy="5.146965"
       r="2.0480001" />
  </g>
  <g
     id="g856"
     transform="matrix(7.9166667,0,0,7.9819393,33,32.216728)">
    <path
       stroke="none"
       d="M 0,0 H 24 V 24 H 0 Z"
       fill="none"
       id="path2" />
    <g
       id="g2086"
       transform="matrix(0.840204,0,0,0.840204,-0.60306013,4.4381639)">
      <path
         d="m 4.3333333,-1.6666667 m 0,5.3333334 A 5.3333333,5.3333333 0 0 1 9.6666667,-1.6666667 H 20.333333 a 5.3333333,5.3333333 0 0 1 5.333334,5.3333334 V 14.333333 a 5.3333333,5.3333333 0 0 1 -5.333334,5.333334 H 9.6666667 A 5.3333333,5.3333333 0 0 1 4.3333333,14.333333 Z"
         id="path4"
         style="fill:none;stroke:#ffffff;stroke-width:2.66667;stroke-opacity:1" />
      <path
         d="m 15,9 m -4,0 a 4,4 0 1 0 8,0 4,4 0 1 0 -8,0"
         id="path6"
         style="fill:none;stroke:#ffffff;stroke-width:2.66667;stroke-opacity:1" />
      <path
         d="M 21,3 V 3.013333"
         id="path8"
         style="fill:none;stroke:#ffffff;stroke-width:2.66667;stroke-opacity:1" />
    </g>
  </g>
</svg>
